<svg version="1.1" id="Layer_1" xmlns="http://www.w3.org/2000/svg" xmlns:xlink="http://www.w3.org/1999/xlink" x="0px" y="0px"
	 viewBox="0 0 600 600" style="enable-background:new 0 0 600 600;" xml:space="preserve">
<g style="fill: none; stroke: url(#gradient); stroke-width: 2px;">
	<defs>
		<linearGradient id="gradient" gradientTransform="rotate(90)">
			<stop offset="5%" stop-color="#2DE781"/>
			<stop offset="85%" stop-color="#E72DCD"/>
			<stop offset="10%" stop-color="#AE3FD8"/>
		</linearGradient>
	</defs>
	<path d="M267.2,158c0.2,0.4,0.8,0.5,1.1,0.2c0.3-0.2,0.4-0.6,0.2-0.9c-11.8-29-13.5-47.9-14.6-69.5c-0.4-7.7-0.5-15.9,1.9-23.3
		c2.4-7.2,7.4-12.7,13.1-14.4c-1.1,2.1-1.5,4.6-1.1,7c0.3,3.3,2,6.3,4.6,8.4c4.9,3.6,12.3,2.6,16.6-2.2c3.9-4.4,5-11.8,2.7-17.8
		c-3.6-9.2-14.7-14.4-24.7-11.5c-8.7,2.4-16.2,10.2-20.1,20.8c-3.8,10.3-3.7,21.5-3.4,30.1C244.5,104.7,249.4,133.8,267.2,158z"/>
	<path d="M212.8,109.5c3.9,3.2,8,6.2,12.1,9.2c5.4,4,11.1,8.2,16.2,12.7c0.3,0.3,0.8,0.2,1.1-0.1c0.2-0.2,0.2-0.5,0.2-0.8
		c-7.1-16.7-15.6-35.7-26.4-50.3c-3.7-5-9.6-11.3-17-12.8c-3.2-0.5-6.5,0.7-8.6,3.1c-1.7,2.1-3.1,5.8-0.5,11.9
		C194.9,94,204.8,103,212.8,109.5z"/>
	<path d="M229.7,84.3c0.5,0,0.8-0.4,0.8-0.8v-0.1c-0.5-7.2,0.5-14.4,3.3-21.1c0.2-0.4,0.4-1,0.6-1.6c0.8-1.8,1.5-3.7,2-5.6
		c0.2-1.8-0.1-4-1.8-5.4c-1.4-1-3-1.4-4.7-1.1c-1.5,0.2-2.8,0.8-3.7,2c-2,2.7-4.3,6.9-4.2,15.3c0.1,5.3,5.3,15.1,7,17.9
		C229.2,84.2,229.4,84.3,229.7,84.3z"/>
	<path d="M168.1,109.6c0.2,0,0.3,0,0.5,0c1.9-0.3,3.8-0.8,5.7-1.5c0.6-0.2,1.2-0.4,1.6-0.5c6.9-2.1,14.1-2.7,21.2-1.6
		c0.5,0.1,0.8-0.2,0.9-0.7c0.1-0.3-0.1-0.6-0.3-0.8c-0.6-0.4-1.2-0.8-1.8-1.2c-5.1-3.5-9.5-6.6-15.5-7.2c-9.3-0.9-13.7,1.8-15.6,3
		c-1.2,0.8-2,2.1-2.3,3.6c-0.4,1.6-0.2,3.3,0.7,4.7C164.5,108.9,166.3,109.7,168.1,109.6z"/>
	<path d="M196.9,170.6c5.4,0,5.4-8.5,0-8.5C191.4,162.1,191.4,170.6,196.9,170.6z"/>
	<path d="M186.9,168.4c5.4,0,5.4-8.5,0-8.5S181.4,168.4,186.9,168.4z"/>
	<path d="M176.2,167.2c5.4,0,5.4-8.5,0-8.5C170.7,158.8,170.7,167.2,176.2,167.2z"/>
	<path d="M165.8,159.1c-5.4,0-5.4,8.5,0,8.5S171.2,159.1,165.8,159.1z"/>
	<path d="M156.1,169.4c5.4,0,5.4-8.5,0-8.5C150.7,161,150.7,169.4,156.1,169.4z"/>
	<path d="M272.6,151.9c5.4,0,5.4-8.5,0-8.5C267.2,143.5,267.2,151.9,272.6,151.9z"/>
	<path d="M269.8,141c5.4,0,5.4-8.5,0-8.5C264.3,132.6,264.3,141,269.8,141z"/>
	<path d="M267.2,130.9c5.4,0,5.4-8.5,0-8.5C261.8,122.4,261.8,130.9,267.2,130.9z"/>
	<path d="M264.7,119.7c5.4,0,5.4-8.5,0-8.5C259.3,111.3,259.3,119.7,264.7,119.7z"/>
	<path d="M263.3,108.9c5.4,0,5.4-8.5,0-8.5C257.8,100.4,257.8,108.9,263.3,108.9z"/>
	<path d="M262.6,98.4c5.4,0,5.4-8.5,0-8.5C257.1,89.9,257.1,98.4,262.6,98.4z"/>
	<path d="M262.2,87.2c5.4,0,5.4-8.5,0-8.5C256.8,78.7,256.8,87.2,262.2,87.2z"/>
	<path d="M262.9,76.7c5.4,0,5.4-8.5,0-8.5S257.4,76.7,262.9,76.7z"/>
	<path d="M327.7,65.3c2.6-2.1,4.2-5.1,4.6-8.4c0.3-2.4-0.1-4.8-1.1-7c5.7,1.8,10.6,7.3,13.1,14.4c2.5,7.4,2.3,15.6,1.9,23.3
		c-1.1,21.6-2.8,40.4-14.6,69.5c-0.2,0.4,0,0.8,0.5,1c0.3,0.2,0.7,0,0.9-0.2c17.8-24.1,22.7-53.2,23.7-73.3
		c0.5-8.6,0.5-19.8-3.4-30.1c-3.9-10.5-11.4-18.3-20-20.9c-10-2.9-21,2.3-24.7,11.5c-2.4,6-1.3,13.4,2.7,17.8
		C315.4,67.9,322.8,68.9,327.7,65.3z"/>
	<path d="M358.4,131.5L358.4,131.5L358.4,131.5z"/>
	<path d="M358.1,131.5c0.1,0.1,0.2,0.1,0.3,0.1c0.2,0,0.4-0.1,0.5-0.2c5.1-4.5,10.8-8.6,16.2-12.7c4-3,8.1-6,12.1-9.2
		c8.1-6.6,18-15.5,23-27.2c2.6-6.1,1.1-9.9-0.5-11.9c-2.1-2.5-5.3-3.7-8.6-3.1c-7.3,1.6-13.3,7.9-17,12.8
		c-10.8,14.7-19.3,33.7-26.4,50.3C357.5,130.8,357.6,131.3,358.1,131.5z"/>
	<path d="M365.6,60.9c0.2,0.6,0.5,1.1,0.6,1.6c2.7,6.6,3.8,13.9,3.3,21.1c0,0.5,0.3,0.8,0.7,0.8c0.3,0,0.6-0.2,0.8-0.4
		c1.6-2.8,7-12.6,7-17.9c0.1-8.4-2.2-12.6-4.2-15.3c-0.9-1.1-2.3-1.8-3.7-2c-1.6-0.2-3.3,0.2-4.7,1.1c-1.8,1.4-2.1,3.7-1.8,5.4
		C364.1,57.2,364.8,59.1,365.6,60.9z"/>
	<path d="M402.2,104.5c-0.4,0.2-0.5,0.8-0.2,1.1c0.2,0.2,0.5,0.4,0.8,0.3c7.1-1.1,14.4-0.5,21.2,1.6c0.4,0.2,1,0.3,1.6,0.5
		c1.8,0.7,3.7,1.2,5.7,1.5c0.2,0,0.3,0,0.5,0c1.8,0.1,3.6-0.8,4.7-2.2c0.8-1.5,1.1-3.1,0.7-4.7c-0.2-1.5-1.1-2.8-2.3-3.6
		c-1.8-1.1-6.2-3.9-15.6-3c-6,0.6-10.4,3.7-15.5,7.2C403.4,103.7,402.8,104.1,402.2,104.5z"/>
	<path d="M403.1,162.1c-5.4,0-5.4,8.5,0,8.5C408.6,170.6,408.6,162.1,403.1,162.1z"/>
	<path d="M413.1,159.9c-5.4,0-5.4,8.5,0,8.5C418.6,168.4,418.6,159.9,413.1,159.9z"/>
	<path d="M423.8,158.8c-5.4,0-5.4,8.5,0,8.5C429.3,167.2,429.3,158.8,423.8,158.8z"/>
	<path d="M434.2,159.1c-5.4,0-5.4,8.5,0,8.5C439.7,167.6,439.7,159.1,434.2,159.1z"/>
	<path d="M443.9,161c-5.4,0-5.4,8.5,0,8.5C449.3,169.4,449.3,161,443.9,161z"/>
	<path d="M327.4,151.9c5.4,0,5.4-8.5,0-8.5C321.8,143.5,321.8,151.9,327.4,151.9z"/>
	<path d="M330.2,141c5.4,0,5.4-8.5,0-8.5C324.8,132.6,324.8,141,330.2,141z"/>
	<path d="M332.8,130.9c5.4,0,5.4-8.5,0-8.5C327.3,122.4,327.3,130.9,332.8,130.9z"/>
	<path d="M335.3,119.7c5.4,0,5.4-8.5,0-8.5C329.8,111.3,329.9,119.7,335.3,119.7z"/>
	<path d="M336.7,108.9c5.4,0,5.4-8.5,0-8.5C331.2,100.4,331.2,108.9,336.7,108.9z"/>
	<path d="M337.4,89.9c-5.4,0-5.4,8.5,0,8.5C342.9,98.4,342.9,89.9,337.4,89.9z"/>
	<path d="M337.8,78.7c-5.4,0-5.4,8.5,0,8.5C343.2,87.2,343.2,78.7,337.8,78.7z"/>
	<path d="M337.1,68.2c-5.4,0-5.4,8.5,0,8.5C342.6,76.7,342.5,68.2,337.1,68.2z"/>
	<path d="M274.6,330.3c2.7-5.1,2.2-11.3-1.1-16c6.3-1.8,9.5-9.1,9.8-15.9c0.2-6.1-3.5-11.6-9.2-13.8c3.5-7.2,4-13.1,1.7-17.9
		c-2.7-5.3-9.1-8.6-15.4-8.1c0.8-5.9-1.9-11.8-6.9-15.1c-5-3.1-11.5-1.9-16.1,1c-0.8-5.1-5.1-10.3-12.4-11.5
		c-4.7-0.8-11.7,1.7-14.9,6c-3.8-4.8-10-7.2-16-6c-5.2,1-9.3,5.3-10.9,11.3c-5-2.8-12.3-3.4-17.1,0.5c-4.7,4-6.9,10.1-5.9,16.1
		c-2.8,0-5.4,0.6-7.9,1.8c-4.2,2.3-7,8.1-7.2,12.4c-0.2,4,2,8.1,4.6,10.9c-5.2,2.8-8.7,8-8.8,13.4c-0.2,5.6,2.9,10.8,7.8,13.4
		c-3.5,5-4.5,11.3-2.7,16.6c2.1,5.9,8.8,9.5,14.6,9.6c-1.1,5.6,0.6,11.4,4.7,15.4c4.8,4.7,13.1,3.7,18.1,2.1
		c1.3,5.3,6.3,9.7,12.5,10.5c0.8,0.1,1.6,0.2,2.4,0.2c4.9,0.1,9.6-2.1,12.6-6c3.7,4,10.4,6.1,16,4.7c5.7-1.5,10.2-6,11.4-11.2
		c8.1,3.1,17.1-0.8,20.3-8.9c0.9-2.3,1.2-4.8,1-7.3C265.2,339.2,271.7,335.7,274.6,330.3z M258.3,336L258.3,336
		c-0.7-0.2-1.5,0.3-1.6,1c-0.1,0.2-0.1,0.4,0,0.6c1.6,7-2.8,14-9.9,15.6c-3.1,0.7-6.2,0.2-8.9-1.2c-0.6-0.3-1.5-0.1-1.8,0.5
		c-0.1,0.2-0.2,0.3-0.2,0.5c-0.4,4.9-4.4,9.2-9.7,10.6c-5.1,1.3-11.7-1-14.3-5.1c-0.2-0.4-0.7-0.6-1.1-0.6c-0.5,0-0.9,0.2-1.1,0.7
		c-2.6,4.5-7.9,7-13.4,6.2c-5.6-0.8-10.1-5-10.5-9.8c-0.1-0.8-0.7-1.3-1.5-1.2c-0.2,0-0.2,0-0.4,0.1c-5.4,2.1-13.1,2.6-16.9-1.1
		c-5-4.8-4.6-11.4-3.5-14.5c0.2-0.7-0.2-1.5-0.8-1.7c-0.2-0.1-0.4-0.1-0.5-0.1c-5.7,0.6-12-3.1-13.7-7.8c-1.8-4.9-0.5-10.9,3.3-15.4
		c0.5-0.5,0.4-1.4-0.2-1.8c-0.1-0.1-0.2-0.2-0.4-0.2c-4.8-1.8-7.9-6.5-7.7-11.6c0-5,3.7-9.9,8.9-11.8c0.7-0.2,1-1,0.8-1.7
		c-0.1-0.2-0.2-0.4-0.4-0.5c-2.6-2.2-5.3-6.3-5.1-10.2c0.2-3.5,2.6-8.4,5.8-10.2c2.5-1.2,5.3-1.7,8.1-1.5c0.8,0.1,1.4-0.5,1.5-1.2
		c0-0.2,0-0.3,0-0.5c-1.5-5.5,0.5-11.8,4.6-15.1c4.4-3.6,11.4-2.5,15.5,0.6c0.6,0.5,1.4,0.3,1.8-0.3c0.2-0.2,0.2-0.4,0.2-0.5
		c1.2-7.1,5.7-10.4,9.2-11.1c5-1,11.8,1.2,14.3,6.5c0.2,0.5,0.7,0.8,1.2,0.8c0.5,0,1-0.3,1.2-0.8c1.8-4.2,8.9-7.1,13.3-6.4
		c6.8,1.1,10.8,6.7,10.2,11.3c-0.1,0.7,0.5,1.4,1.1,1.5c0.4,0.1,0.8-0.1,1.1-0.3c3.8-3.4,10.4-5.3,15.1-2.3
		c4.6,3.1,6.7,8.7,5.3,14.1c-0.2,0.7,0.2,1.5,0.9,1.6c0.2,0.1,0.5,0.1,0.6,0c5.7-1.2,12,1.6,14.4,6.4c2.1,4.2,1.3,9.9-2.4,16.9
		c-0.3,0.6-0.1,1.5,0.5,1.8c0.1,0.1,0.2,0.1,0.4,0.2c5,1,8.9,6.3,8.7,11.6c-0.2,4.7-2.5,13.5-9.7,13.8c-0.8,0-1.3,0.6-1.3,1.4
		c0,0.4,0.2,0.7,0.4,0.9c3.9,3.9,4.9,9.9,2.4,14.7C269.6,334,263.2,337.1,258.3,336z"/>
	<path d="M176.5,237.1c0.5,0.2,1.1,0.4,1.6,0.4c1.1,0,2.2-0.5,3-1.2s1.2-1.8,1.2-3v-0.2c0-1.1-0.5-2.2-1.2-3c-0.8-0.8-1.9-1.2-3-1.2
		c-1.1,0-2.2,0.5-3,1.2c-0.8,0.8-1.2,1.8-1.2,3v0.2c0,1.1,0.5,2.2,1.2,3C175.5,236.7,176,237,176.5,237.1z"/>
	<path d="M210.2,231.3c1.1,0,2.2-0.5,3-1.2c0.8-0.8,1.2-1.9,1.2-3c0-1.1-0.5-2.2-1.2-3c-0.8-0.8-1.8-1.2-3-1.2H210
		c-1.1,0-2.2,0.5-3,1.2c-0.8,0.8-1.2,1.9-1.2,3c0,1.1,0.5,2.2,1.2,3c0.8,0.8,1.8,1.2,3,1.2H210.2z"/>
	<path d="M241.1,236.8c5.4,0,5.4-8.5,0-8.5C235.7,228.3,235.6,236.8,241.1,236.8z"/>
	<path d="M298.9,201.8c5.4,0,5.4-8.5,0-8.5C293.4,193.3,293.4,201.8,298.9,201.8z"/>
	<path d="M298.9,191.8c5.4,0,5.4-8.5,0-8.5C293.4,183.3,293.4,191.8,298.9,191.8z"/>
	<path d="M298.9,173.3c-5.4,0-5.4,8.5,0,8.5C304.3,181.8,304.3,173.3,298.9,173.3z"/>
	<path d="M150.3,198.8c4.7-3.3,9.9-5.7,15.4-6.9c6-1.3,12.5-0.8,18.5-0.4c26.2,2,51.6,11.6,74,25.1c10.2,6,19.7,13.1,28.3,21.1
		c0.5,0.5,1.4,0.5,1.9-0.1c0.4-0.4,0.5-1.1,0.2-1.5c-7.3-12.1-19-21.5-30.4-29.9c-12.3-9.2-25.4-17.3-39-24.3
		C205,174.7,188.2,170,172,171c-14.5,0.8-30.3,7-38.1,20c-7.6,12.8-7.2,31.4,0.8,43.9l0,0c0.1,0.1,0.1,0.2,0.2,0.2l0,0l0.1,0.1
		c0.2,0.2,0.6,0.3,0.9,0.3c0.5,0,0.9-0.3,1.1-0.8c0.1-0.2,0.2-0.5,0.1-0.8c0-7,0.3-14.2,2.5-20.9
		C141.6,207.4,145.3,202.4,150.3,198.8z"/>
	<path d="M153,142.2c4.6,1.9,11.7-0.2,15.5-1.5c12.8-3.9,27.8-3.1,42.2,2.3c12.1,4.5,23.8,12.1,35.9,23.1
		c16.7,15.3,30.3,33.6,40.1,54.1c0.2,0.4,0.7,0.5,1.1,0.4s0.5-0.6,0.4-1c-9.5-28-27.4-56.4-47.7-76.1c-11.7-11.2-22.9-19-34.5-23.7
		c-14.2-5.8-29-6.8-41.7-2.9c-5.4,1.7-12.1,7.3-14.9,12.5c-1.6,3-2.1,5.8-1.2,8.1C149,139.7,150.6,141.2,153,142.2z"/>
	<path d="M268,210.2c5.4,0,5.4-8.5,0-8.5C262.6,201.8,262.6,210.2,268,210.2z"/>
	<path d="M257.9,193.6c-1.1,0-2.2,0.5-3,1.2c-0.8,0.8-1.2,1.9-1.2,3c0,1.1,0.5,2.2,1.2,3s1.8,1.2,3,1.2h0.4c1.1,0,2.2-0.5,3-1.2
		c0.8-0.8,1.2-1.9,1.2-3c0-1.1-0.5-2.2-1.2-3c-0.8-0.8-1.8-1.2-3-1.2H257.9z"/>
	<path d="M248.7,194.6c5.4,0,5.4-8.5,0-8.5C243.2,186.2,243.2,194.6,248.7,194.6z"/>
	<path d="M238.3,187.6c5.4,0,5.4-8.5,0-8.5C232.8,179.1,232.8,187.6,238.3,187.6z"/>
	<path d="M225.7,174.9c-0.8,0.8-1.2,1.8-1.2,3v0.4c0,1.1,0.5,2.2,1.2,3c0.8,0.8,1.9,1.2,3,1.2c1.1,0,2.2-0.5,3-1.2
		c0.8-0.8,1.2-1.8,1.2-3v-0.4c0-1.1-0.5-2.2-1.2-3c-0.8-0.8-1.9-1.2-3-1.2C227.6,173.6,226.5,174,225.7,174.9z"/>
	<path d="M219,178c5.4,0,5.4-8.5,0-8.5C213.6,169.5,213.6,178,219,178z"/>
	<path d="M207.9,165.1c-5.4,0-5.4,8.5,0,8.5C213.4,173.6,213.4,165.1,207.9,165.1z"/>
	<path d="M146.9,173.6c5.4,0,5.4-8.5,0-8.5S141.5,173.6,146.9,173.6z"/>
	<path d="M137.7,179.8c5.4,0,5.4-8.5,0-8.5C132.2,171.3,132.2,179.8,137.7,179.8z"/>
	<path d="M459.1,299.6c0-5.4-3.6-10.7-8.8-13.4c2.6-2.8,4.8-6.9,4.6-10.9c-0.2-4.3-3-10-7.2-12.4c-2.4-1.2-5.1-1.8-7.9-1.8
		c1-6-1.2-12.1-5.9-16.1c-4.8-4-12.1-3.4-17.1-0.5c-1.6-6-5.7-10.3-10.9-11.3c-6-1.2-12.2,1.1-16,6c-3.3-4.3-10.2-6.7-14.9-6
		c-7.3,1.1-11.6,6.4-12.4,11.5c-4.6-2.9-11.2-4.1-16.1-1c-5,3.3-7.6,9.2-6.9,15.1c-6.2-0.5-12.7,2.8-15.4,8.1
		c-2.4,4.7-1.8,10.7,1.7,17.9c-5.7,2.2-9.3,7.8-9.2,13.8c0.3,6.8,3.5,14.1,9.8,15.9c-3.4,4.7-3.8,10.9-1.1,16
		c2.9,5.3,9.3,8.9,15,8.5c-0.8,8.6,5.4,16.3,14,17.2c2.4,0.2,5-0.1,7.3-1c1.2,5.2,5.7,9.7,11.4,11.2c5.6,1.5,12.3-0.7,16-4.7
		c3.1,3.9,7.7,6.1,12.6,6c0.8,0,1.6-0.1,2.4-0.2c6.1-0.8,11.2-5.3,12.5-10.5c5,1.6,13.3,2.5,18.1-2.1c4-4,5.8-9.9,4.7-15.4
		c5.8-0.2,12.5-3.7,14.6-9.6c1.8-5.3,0.8-11.6-2.7-16.6C456.2,310.4,459.3,305.2,459.1,299.6z M448.7,311.2L448.7,311.2
		c-0.7,0.3-1,1.1-0.8,1.7c0.1,0.2,0.2,0.2,0.2,0.4c3.7,4.4,5,10.4,3.3,15.4c-1.7,4.7-8.1,8.4-13.7,7.8c-0.7-0.1-1.4,0.5-1.5,1.1
		c0,0.2,0,0.4,0.1,0.5c1.1,3.1,1.5,9.7-3.5,14.5c-3.8,3.7-11.5,3.1-16.9,1.1c-0.7-0.2-1.5,0.1-1.7,0.8c-0.1,0.2-0.1,0.2-0.1,0.4
		c-0.4,4.8-4.9,9-10.5,9.8c-5.6,0.8-10.8-1.7-13.4-6.2c-0.2-0.4-0.7-0.7-1.1-0.7l0,0c-0.5,0-0.8,0.2-1.1,0.6
		c-2.6,4.1-9.2,6.4-14.3,5.1c-5.3-1.4-9.3-5.7-9.7-10.6c-0.1-0.8-0.7-1.3-1.5-1.2c-0.2,0-0.4,0.1-0.5,0.2
		c-6.3,3.4-14.3,0.9-17.6-5.4c-1.5-2.8-1.9-5.9-1.2-8.9c0.2-0.7-0.3-1.5-1-1.6c-0.2-0.1-0.4-0.1-0.6,0c-4.9,1.1-11.3-2-14-6.9
		c-2.5-4.9-1.6-10.8,2.4-14.7c0.5-0.5,0.5-1.4,0.1-1.8c-0.2-0.2-0.5-0.4-0.9-0.4c-7.3-0.2-9.5-9.1-9.7-13.8
		c-0.2-5.3,3.7-10.6,8.7-11.6c0.7-0.2,1.1-0.8,1.1-1.5c0-0.2-0.1-0.2-0.2-0.4c-3.7-7-4.5-12.7-2.4-16.9c2.4-4.8,8.7-7.6,14.4-6.4
		c0.7,0.2,1.5-0.3,1.5-1c0.1-0.2,0-0.5,0-0.6c-1.4-5.3,0.8-11,5.3-14.1c4.7-3,11.3-1.1,15.1,2.3c0.5,0.5,1.4,0.5,1.8-0.2
		c0.2-0.3,0.4-0.7,0.3-1.1c-0.7-5.7,4.7-10.5,10.2-11.3c4.4-0.7,11.5,2.2,13.3,6.4c0.2,0.5,0.7,0.8,1.2,0.8l0,0c0.5,0,1-0.3,1.2-0.8
		c2.4-5.3,9.3-7.5,14.3-6.5c3.5,0.7,8,4,9.2,11.1c0.2,0.7,0.8,1.2,1.5,1.1c0.2,0,0.4-0.2,0.5-0.2c5.3-4,12.1-3.4,15.5-0.6
		c4.1,3.4,6,9.6,4.6,15.1c-0.2,0.7,0.2,1.5,0.9,1.6c0.2,0.1,0.3,0.1,0.5,0c2.8-0.2,5.6,0.2,8.1,1.5c3.2,1.8,5.7,6.7,5.8,10.2
		c0.2,3.8-2.5,7.9-5.1,10.2c-0.5,0.5-0.6,1.3-0.2,1.8c0.2,0.2,0.3,0.3,0.5,0.4c5.2,2,8.9,6.9,8.9,11.8
		C456.7,304.8,453.6,309.5,448.7,311.2z"/>
	<path d="M423.5,237.1c0.5-0.2,1-0.5,1.4-0.8c0.8-0.8,1.2-1.8,1.2-3v-0.2c0-1.1-0.5-2.2-1.2-3c-0.8-0.8-1.8-1.2-3-1.2
		c-1.1,0.1-2.1,0.5-3,1.2c-0.8,0.8-1.2,1.8-1.2,3v0.2c0,1.1,0.5,2.2,1.2,3c0.8,0.8,1.8,1.2,3,1.2C422.4,237.5,423,237.4,423.5,237.1
		z"/>
	<path d="M390,231.3c1.1,0,2.2-0.5,3-1.2c0.8-0.8,1.2-1.8,1.2-3c-0.1-1.1-0.5-2.1-1.2-3c-0.8-0.8-1.8-1.2-3-1.2h-0.2
		c-1.1,0-2.2,0.5-3,1.2c-0.8,0.8-1.2,1.8-1.2,3c0.1,1.1,0.5,2.1,1.2,3c0.8,0.8,1.8,1.2,3,1.2H390z"/>
	<path d="M358.9,228.3c-5.4,0-5.4,8.5,0,8.5C364.4,236.8,364.3,228.3,358.9,228.3z"/>
	<path d="M434,171.6c-32.1-4.7-62,13.4-87.2,31c-13.1,9.2-27,19.6-35.4,33.5c-0.4,0.6-0.1,1.5,0.5,1.8c0.5,0.3,1.1,0.2,1.5-0.2
		c16.6-15.7,37.1-27.6,58.3-35.8c12.5-5,25.7-8.3,39.1-9.9c6.4-0.8,13.2-1.3,19.6-0.7c5.7,0.6,11.2,2.4,16,5.4
		c5.9,3.4,10.8,8.3,13.3,14.7c2.8,7.2,3.2,15,3.1,22.6c-0.1,0.2,0,0.5,0.1,0.8c0.2,0.5,0.6,0.8,1.1,0.8c0.3,0.1,0.7-0.1,0.9-0.2
		l0.1-0.1l0,0c0.1-0.1,0.2-0.2,0.2-0.2l0,0c7.2-11.4,8-27.3,2.9-39.6C462.6,181.7,448.1,173.7,434,171.6z"/>
	<path d="M312.1,220.6c0.4,0.2,0.8,0,1-0.4c9.8-20.4,23.4-38.8,40.1-54.1c12.1-11,23.8-18.6,35.9-23.1c14.4-5.4,29.4-6.2,42.2-2.3
		c3.8,1.1,10.9,3.4,15.5,1.5c2.4-1,4-2.6,4.8-4.6c0.8-2.3,0.4-5.1-1.2-8.1c-2.8-5.3-9.5-10.8-14.9-12.5c-12.7-3.9-27.5-2.9-41.7,2.9
		c-11.5,4.7-22.8,12.5-34.5,23.7c-20.4,19.7-38.3,48.1-47.7,76.1C311.5,220.1,311.8,220.5,312.1,220.6z"/>
	<path d="M332,201.8c-5.4,0-5.4,8.5,0,8.5C337.4,210.2,337.4,201.8,332,201.8z"/>
	<path d="M342.1,202c1.1,0,2.2-0.5,3-1.2c0.8-0.8,1.2-1.8,1.2-3c-0.1-1.1-0.5-2.1-1.2-3c-0.8-0.8-1.8-1.2-3-1.2h-0.4
		c-1.1,0-2.2,0.5-3,1.2c-0.8,0.8-1.2,1.8-1.2,3c0.1,1.1,0.5,2.1,1.2,3c0.8,0.8,1.8,1.2,3,1.2H342.1z"/>
	<path d="M351.3,186.2c-5.4,0-5.4,8.5,0,8.5C356.8,194.6,356.8,186.2,351.3,186.2z"/>
	<path d="M361.7,179.1c-5.4,0-5.4,8.5,0,8.5S367.2,179.1,361.7,179.1z"/>
	<path d="M373,182c0.5-0.2,1-0.5,1.4-0.8c0.8-0.8,1.2-1.8,1.2-3v-0.4c0-1.1-0.5-2.2-1.2-3c-0.8-0.8-1.8-1.2-3-1.2
		c-1.1,0.1-2.1,0.5-3,1.2c-0.8,0.8-1.2,1.8-1.2,3v0.4c0,1.1,0.5,2.2,1.2,3s1.8,1.2,3,1.2C371.9,182.4,372.4,182.3,373,182z"/>
	<path d="M381,169.5c-5.4,0-5.4,8.5,0,8.5C386.4,178,386.4,169.5,381,169.5z"/>
	<path d="M392.1,165.1c-5.4,0-5.4,8.5,0,8.5C397.5,173.6,397.5,165.1,392.1,165.1z"/>
	<path d="M453.1,173.6c5.4,0,5.4-8.5,0-8.5C447.7,165.1,447.7,173.6,453.1,173.6z"/>
	<path d="M462.3,179.8c5.4,0,5.4-8.5,0-8.5C456.9,171.3,456.9,179.8,462.3,179.8z"/>
	<path d="M334.2,392.9c2.5-6,2.1-13.4-1-22.2c-3.9-10.7-10.3-19.6-16.6-28.1c-6.6-9-13.4-18.3-17-29.7c-0.2-0.4-0.6-0.6-1-0.5
		c-0.2,0.1-0.5,0.3-0.5,0.5c-3.6,11.4-10.4,20.7-17,29.7c-6.2,8.6-12.6,17.4-16.5,28.1c-3.2,8.7-3.5,16.2-1,22.2
		c3.2,7.3,10.2,12.1,18.2,12.3c0.1,0,0.2,0,0.3,0c7.3,0,14.2-4.4,17-10.4c3.1,6.4,9.7,10.5,16.9,10.4C324,405,331,400.2,334.2,392.9
		z"/>
	<path d="M252.9,393.6c0.4,0.5,0.8,1,1.1,1.4c0.3,0.3,0.8,0.4,1.1,0.1c0.2-0.2,0.4-0.5,0.2-0.8c-10.3-29-45.9-19.1-63-14.3
		c-2.1,0.6-3.9,1.1-5.3,1.5c-0.9,0.2-1.8,0.5-2.8,0.7c-6.3,1.5-12.7,3.1-19,2.4c-8.1-1-15.1-7.5-16.5-13.1c2.3,0.2,4.6-0.7,6.3-2.3
		c2.3-2,3.5-5,3.1-8.1c-0.5-2.6-1.9-5-4.1-6.5c-2.4-1.8-5.5-2.6-8.6-2.2c-5.3,0.8-9.9,5.3-11.3,11.1c-1.2,4.9-0.2,10.7,2.8,15.8
		c5.5,9.3,17,15.5,29.9,16.3c12.1,0.7,24-3.1,34-6.9c1.1-0.4,2.2-0.8,3.4-1.3c4.3-1.7,8.7-3.4,13.3-4.1
		C241.6,379.1,248.7,388.2,252.9,393.6z"/>
	<path d="M241.6,361.5c-2.3,0.5-4,2.4-4.1,4.8c0,1.9,1.2,3.9,3.3,5.2c1.3,0.6,2.7,1.1,4,1.2c0.9,0.2,1.8,0.4,2.8,0.7
		c6.1,2.7,7.5,8,8.5,14.3c0.1,0.4,0.4,0.7,0.8,0.7h0.1c0.4,0,0.8-0.4,0.8-0.8V387c0-6.8,0-12.7-3.7-18.6
		C252.2,365.8,247.7,360,241.6,361.5z"/>
	<path d="M472,318.6c22.4-57,24.5-103.6,22.4-132.7c-2.3-31.2-9.7-49-10.2-50.4C464.4,82.3,431,45.5,384.8,25.9
		c-36.9-15.7-71.2-15.7-85.9-15.7c-18.1,0-51.9,0-87.4,15.7c-43.6,19.3-75.9,56.2-95.6,109.6c-0.5,1.3-7.9,19.2-10.2,50.4
		c-2.1,29.1,0,75.7,22.4,132.7c-1,3.4-2,6.7-2.9,9.9c-8.3,27.6-14.1,47.5,8.1,68.5c0.2,0.2,0.3,0.3,0.5,0.5
		c6.8,6.7,15.5,11.1,24.9,12.7c3,5.6,17.1,35,15.8,77c-0.6,18.2,3.4,31.9,11.8,40.6c5,5.3,11.8,8.7,19,9.5
		c7.6,8.8,17.2,21,22.2,29.9c4,7.1,10.8,13.1,19.4,16.7c9.7,4,21.2,5,33.2,2.7c0,0,0,0,0.1,0c6.3-1.3,12.8-2.1,19.3-2.1
		c9.5,0,20.5,2.1,20.6,2.1c4.2,0.8,8.4,1.2,12.7,1.2c7,0.1,14-1.3,20.6-3.9c8.6-3.6,15.5-9.5,19.4-16.7c5-8.9,14.6-21.2,22.2-29.9
		c7.3-0.8,14.1-4.2,19-9.5c8.5-8.8,12.5-22.5,11.8-40.6c-1.3-41.9,12.9-71.4,15.8-77c9.4-1.5,18.1-6,24.9-12.7
		c0.2-0.2,0.3-0.3,0.5-0.5c22.2-21,16.3-40.9,8.1-68.5C474,325.3,473,322,472,318.6z M189.2,524.8c-7.6-7.9-11.2-20.6-10.6-37.5
		c1.2-39-10.2-66.8-15-76.5c1.7,0.2,3.4,0.2,5.1,0.2c0.2,0,0.5,0,0.7,0c3.7,1.5,11.7,5.2,14.2,11.1c2.3,5.4,1.7,10.4,1.1,15.7
		c-0.7,6-1.4,12.1,1.5,19.6c2.9,7.6,9.8,13,18.9,14.7c-0.3,0.3-0.6,0.6-0.8,0.9c-2.1,2.8-2.3,6.8-0.8,12c0.1,0.2,0.2,0.5,0.3,0.7
		c-2.1-1.5-4.6-2.3-7.2-2.2l0,0c-4.7,0-9.2,3.6-10.9,8.7c-1.6,4.2-1.9,8.8-0.9,13.1c1.2,6.1,3.8,11.8,7.6,16.7
		c1.5,2.4,3.2,4.7,5.1,6.6c0.8,0.9,1.9,2,3.1,3.3C196.3,530.6,192.4,528.2,189.2,524.8z M213.7,484.6L213.7,484.6
		c0.1,3,0.6,6,1.6,8.8h-0.1c-0.2,0.1-1.9,0.8-4.4-1.6c-1.3-1.4-4.1-6.9-4.4-7.7c-1.2-4-1.1-7.2,0.2-9.1c0.5-0.8,1.5-1.5,2.4-1.7l0,0
		c2.2,0,5.6,3.2,6.1,5.8c-0.2,0.3-0.5,0.7-0.7,1C213.9,481.6,213.7,483.1,213.7,484.6z M213,468.1L213,468.1
		c-0.2,0.2-0.6,0.5-1.5,0.4c-1-0.5-1.8-1.2-2.2-2.1c-1.5-5-1-12.3,3.4-17.3c0.4-0.3,0.9-0.5,1.4-0.6c0.2,0.1,0.5,0.2,0.5,0.4
		c0.5,0.7,0.8,1.4,1.1,2.1C213.1,456.3,212.1,462.3,213,468.1z M206,466.1c-0.2-0.2-0.5-0.4-0.7-0.6c-0.9-0.9-2.3-3.3-1.8-8.8
		c0.2-2.8,2.2-6.7,4.1-8.3c0.3-0.3,0.6-0.5,1.1-0.5c0.2,0.2,0.4,0.4,0.5,0.6C205.3,453.9,204.7,460.8,206,466.1z M392.2,533.8
		c-0.1,0-0.1,0.1-0.1,0.2c-7.8,9-18,21.9-23.2,31.3c-9.2,16.5-30.8,20.6-48.1,17.2c-0.3-0.1-4.4-0.8-9.6-1.5
		c4.9-0.3,10-1.6,16.2-5.7c1.9-1.3,8.3-7.6,13.1-17.7c0.5,1.8,1.5,3.5,2.8,4.8c2.4,2.1,6.6,2.1,9.2,1.1c2.8-1.4,5-3.9,5.7-7
		c0.8-3.8-0.2-7.8-2.8-10.8c-2.6-2.9-6.3-4.4-10.2-4.2c-9.4,0.5-12.5,7.6-15.6,15.1c-1.8,4.3-3.7,8.7-6.9,12.5
		c-6.6,7.9-13.8,9.2-21.3,10.1c1.4-2.4,2.9-4.8,4.6-7c2.3-3.2,4.7-6.5,6.2-10.5c1.2-3.4,1.4-6.2,0.4-8.6c-1.2-2.8-4-4.7-7.2-4.8
		c-2.5,0-4.8,1.2-6.2,3.3c-1.5-2.1-3.8-3.4-6.4-3.3c-3.1,0.1-5.9,2-7.2,4.8c-1,2.3-0.8,5.2,0.4,8.6c1.5,4,3.8,7.3,6.2,10.5
		c1.7,2.2,3.2,4.6,4.6,7c-7.6-0.9-14.7-2.1-21.5-10.1c-3.1-3.7-5-8.2-6.9-12.5c-3.2-7.5-6.3-14.6-15.6-15.1
		c-3.9-0.2-7.6,1.3-10.2,4.2c-2.5,3-3.6,7-2.8,10.8c0.8,3.1,2.9,5.7,5.7,7c2.6,1.1,6.8,1,9.2-1.1c1.4-1.3,2.4-3,2.8-4.8
		c4.9,10.1,11.2,16.5,13.1,17.7c6.6,4.4,12,5.6,17.2,5.8c-4.7,0.6-8,1.3-8.4,1.5c-24.1,4.7-41.5-5.3-48.1-17.2
		c-5.3-9.5-15.5-22.4-23.3-31.4l0,0c-2.7-3.1-5-5.7-6.8-7.6c-5.5-8.2-7.2-17.6-4.6-26c3.1,2.2,5.4,2,6.9,1.3
		c2.8-1.3,4.4-5.1,4.4-7.9c0-0.2,0-0.5,0-0.8c0.3,0.5,0.6,0.8,1,1.2c2,2.1,4,2.8,5.7,2.8c0.8,0,1.5-0.2,2.1-0.5
		c0.4,0.9,0.8,1.8,1.4,2.6c0.9,1.7,2.1,3.1,3.7,4.3c1.3,0.9,2.8,1.5,4.4,1.5c0.5,0,1.1-0.1,1.6-0.2c0.6-0.2,1.1-0.5,1.7-0.8
		c0.8,1.5,1.9,2.8,3.3,3.8c1.4,1.1,3.1,1.8,4.8,1.8c0.2,0,0.3,0,0.5,0c1.2-0.1,2.4-0.5,3.4-1.3c1.5,2.5,3.5,5,6.3,6.3
		c1,0.5,2.1,0.8,3.3,0.8c0.1,0,0.1,0,0.2,0c1.8-0.1,3.4-0.9,4.4-2.3c0.5,0.8,1,1.5,1.6,2.2c2.2,2.9,4.5,4.4,7,4.5c0.1,0,0.2,0,0.3,0
		c2.1-0.1,4-1.1,5.3-2.8c1.1,2,2.7,3.7,4.5,5.1c2.8,2.1,6.7,1.5,8.8-1.3c0.5-0.6,0.8-1.4,1.1-2.1c0.1,0.1,0.2,0.2,0.2,0.3l0,0
		c1.8,3.1,5.3,6,8.8,6c0.2,0,0.3,0,0.5,0c4.6-0.3,6.3-4.5,6.9-8.5c0.6,3.9,2.2,8.1,6.9,8.5c0.2,0,0.3,0,0.5,0c3.5,0,6.9-3,8.8-6
		c0.1-0.1,0.2-0.2,0.2-0.3c0.8,3.4,4.3,5.3,7.6,4.5c0.8-0.2,1.5-0.5,2.2-1.1c1.8-1.4,3.4-3.1,4.5-5.1c1.2,1.7,3.2,2.8,5.3,2.8
		c0.1,0,0.2,0,0.3,0c2.4-0.2,4.7-1.6,7-4.5c0.5-0.7,1.1-1.5,1.6-2.2c1.1,1.4,2.7,2.2,4.4,2.3c0.1,0,0.1,0,0.2,0
		c1.1,0,2.3-0.3,3.3-0.8c2.8-1.4,4.7-3.8,6.3-6.3c1,0.8,2.1,1.2,3.4,1.3c0.2,0,0.3,0,0.5,0c1.8,0,3.4-0.7,4.8-1.8
		c1.3-1.1,2.4-2.4,3.3-3.8c0.5,0.4,1.1,0.6,1.7,0.8c0.5,0.2,1.1,0.2,1.6,0.2c1.6,0,3.1-0.5,4.4-1.5c1.5-1.1,2.8-2.6,3.7-4.3
		c0.5-0.8,1-1.7,1.4-2.6c0.7,0.3,1.5,0.5,2.1,0.5c1.7,0,3.7-0.8,5.7-2.8c0.4-0.4,0.7-0.8,1-1.2c0,0.2,0,0.5,0,0.8
		c0,2.9,1.6,6.6,4.4,7.9c1.5,0.7,3.8,0.9,6.9-1.3c2.6,8.4,0.8,17.8-4.6,26C397.3,528.1,394.9,530.7,392.2,533.8z M236.1,469.1
		c-0.1,0.7-0.1,1.4-0.1,2.1c-0.3,2.7-1.1,4.5-2.4,5.6c-0.8,0.5-1.9,0.7-2.8,0.5c-1.7-0.2-3.1-1.1-4.2-2.4c-2.2-3.3-2.1-5.7-1.3-10.5
		c0.5-3.7,1.5-7.3,3.1-10.7c0.8-1.8,1.8-2.8,2.6-2.9c0.1,0,0.1,0,0.2,0c0.6,0.1,1.1,0.4,1.5,0.8c0.8,1,1.3,2.1,1.6,3.4
		c0.6,2.3,1.1,4.6,1.3,7l0,0C235.8,463.9,236.1,467,236.1,469.1z M256.8,489.7L256.8,489.7c1.8-0.6,3.9,0.2,5.3,0.9
		c1.2,0.6,3.3,2.1,4,4.1c-0.2,0.5-0.3,1-0.5,1.5c-0.4,1.8-0.5,3.7-0.3,5.6c0.3,3.8,1.1,7.6,2.4,11.2c-0.2,0.2-0.2,0.4-0.2,0.7
		c-0.3,1.6-1.8,2.8-3.4,2.8c-1.5-0.1-3-1.1-4.7-3.3c-3.1-4-5.2-8.8-6-13.8c-0.5-2-0.4-4,0.1-6C253.9,491.7,255.1,490.3,256.8,489.7z
		 M254.1,487.5C254.1,487.4,254.1,487.4,254.1,487.5C254.1,487.4,254.2,487.4,254.1,487.5C254.1,487.4,254.1,487.4,254.1,487.5
		L254.1,487.5z M282.6,499.8L282.6,499.8c0.4-2.4,2.8-5.7,5.1-6c3.2-0.5,6.2,2.1,7.5,4.9c1.6,3.3,1.9,6.6,1.9,11.2
		c0,0.2,0,0.5,0,0.7c0.2,10.8-3.1,11.1-4.2,11.2c-1.9,0.2-4.7-1.8-6.3-4.5l0,0C284.9,514.3,281.5,506.2,282.6,499.8z M293.9,488.7
		L293.9,488.7c-1.8,1-4,0.9-5.7,0.8c-3.1-0.3-5.3-1.1-6.8-2.4c-2.4-2.1-3.7-5.6-3.5-9.3l0.1-1.1c0.3-7,1-23.6,8.3-26.4
		c0.8-0.3,1.5-0.2,2.2,0.2c2.9,1.5,5.5,6.7,6,8.6c2.1,7.5,3.4,13.9,3.1,20.6C297.4,484.4,296.1,487.4,293.9,488.7z M280.8,495.6
		L280.8,495.6c-0.7,1.1-1.1,2.3-1.4,3.6c-0.8,4.5,0.4,9.8,1.8,14c0,0.1,0,0.2-0.1,0.3c-0.1,2.7-0.6,4.8-1.3,5.5
		c-1.1,1.2-3,1.4-4.3,0.4c-2-1.6-3.5-3.7-4.5-6c-1.5-3.8-2.4-7.8-2.8-11.8c-0.2-1.5-0.1-3.1,0.2-4.7c0.3-1.4,1-2.6,2-3.6
		c1.5-1.2,3.6-1.7,5.5-1.1C278.1,492.8,279.7,494,280.8,495.6z M266.2,485.3L266.2,485.3c-1.8,0.2-3.6,0-5.3-0.4
		c-4-0.7-4.5-5-4.5-5.3c-0.7-6.3-0.8-15.4,2.6-23.6v-0.1c1.5-3.4,3.4-5.5,5.1-5.5c0.1,0,0.1,0,0.2,0c0.9,0.1,2.7,1.7,4,3.7
		c4.1,6,4.8,14.6,5,17.4l0.1,0.7C273.7,477.8,273.3,484.3,266.2,485.3z M253.4,509.6L253.4,509.6L253.4,509.6
		c-0.2,1.4-1.3,2.3-2.6,2.4c-0.7,0-1.4-0.2-1.9-0.5c-2.8-1.5-4.7-4.6-6.3-7.4c-1.1-2-2-4.1-2.6-6.3c-0.5-2.1-0.5-4.2,0.2-6.3
		c0.5-1.8,1.9-3.3,3.7-4c1.5-0.4,3.1-0.2,4.4,0.6c1,0.5,1.6,1.5,2.3,2.8c0.1,0.2,0.2,0.4,0.3,0.5c-0.2,0.3-0.3,0.7-0.4,1.1
		c-0.6,2.4-0.7,5-0.2,7.4C250.8,503.3,251.9,506.6,253.4,509.6z M252,475.6L252,475.6c-0.3,2.1-0.9,4.6-2.6,6
		c-0.6,0.5-2.9,1.1-5.3,0.4c-2.3-0.7-4-2.5-4.6-4.8c-0.4-1.9-0.5-3.8-0.5-5.8c0-0.2,0.1-0.4,0.1-0.5c0-0.5,0.1-1,0.1-1.6
		c0.3-4.7,1.4-9.9,2.8-13.1c1.1-2.3,2.8-4.3,3.6-4.3h0.1c1.7,0,2.8,0.9,3.9,3c1.9,3.8,2.3,8.4,2.7,12.5
		C252.4,470.1,252.3,472.9,252,475.6z M240,486.2c-1.3,1.1-2.2,2.6-2.8,4.3c-0.8,2.6-0.9,5.4-0.2,8c0.6,2.3,1.5,4.6,2.7,6.6
		c-0.5,0.6-1.2,0.9-2,1c-1.1,0-2.2-0.4-3.1-1.1c-1-0.8-1.8-1.8-2.5-3c-2.3-3.7-3.5-7.9-3.6-12.3c0-2.1,0.3-5,2.1-6.6
		c1.5-1.2,3.6-1.5,5.4-0.8C237.7,483,239.1,484.4,240,486.2z M227.5,481.7L227.5,481.7c-1.6,1.9-2.4,4.7-2.3,8.1
		c0.1,3.8,0.9,7.6,2.6,11.1c-0.2,0.3-0.6,0.5-0.9,0.5c-1.2,0.2-2.4-0.1-3.4-0.8c-1.1-0.9-2.1-2.1-2.8-3.3c-2.3-3.9-3.6-8.3-3.7-12.8
		c-0.1-1,0.1-2,0.5-2.9c0.3-0.6,0.8-1.1,1.4-1.5c1.5-1.1,3.4-1.5,5.1-1.1C225.4,479.4,226.7,480.3,227.5,481.7z M222.1,463.9
		L222.1,463.9c-0.5,2.4-0.6,4.7-0.4,7.1c-0.7,0.7-1.7,1.1-2.7,1c-1.5-0.2-2.4-1.5-2.8-3.5c-1.1-6.3,0.4-13.9,3.8-18.6
		c0.5-0.8,1.1-1.1,1.6-1.1c0.7,0.2,1.3,0.7,1.6,1.3c0.5,1.6,0.8,3.3,1.1,5l0,0C223.3,457.9,222.5,460.9,222.1,463.9z M377.9,463.9
		L377.9,463.9c-0.5-3-1.2-6-2.2-8.9l0,0c0-0.4,0.1-0.8,0.1-1.1c0-1.3,0.3-2.6,0.9-3.7c0.4-0.7,1-1.2,1.8-1.5c0.5-0.1,1,0.3,1.5,1.1
		c3.5,4.8,5,12.3,3.8,18.6c-0.4,2.1-1.3,3.2-2.8,3.5c-1,0.1-2-0.2-2.7-1C378.5,468.6,378.4,466.2,377.9,463.9z M376.2,479L376.2,479
		c1.8-0.4,3.7,0.1,5.1,1.1c0.5,0.4,1,0.8,1.4,1.5c0.4,0.9,0.5,1.9,0.5,2.9c-0.2,4.5-1.4,8.9-3.7,12.8c-0.7,1.3-1.6,2.4-2.8,3.3
		c-1,0.8-2.2,1.1-3.4,0.8c-0.4-0.1-0.7-0.3-0.9-0.5c1.6-3.5,2.5-7.3,2.6-11.1c0.1-3.5-0.7-6.2-2.3-8.1
		C373.3,480.3,374.6,479.4,376.2,479z M373.4,474.9c-1,1.3-2.5,2.1-4.2,2.4c-1,0.2-2,0.1-2.8-0.5c-1.3-1.1-2.1-2.9-2.4-5.6
		c0-0.7-0.1-1.4-0.1-2.1c0-2.1,0.2-5.2,0.5-7.1l0,0c0.2-2.4,0.7-4.7,1.3-7c0.2-1.2,0.8-2.4,1.6-3.4c0.4-0.5,0.9-0.8,1.5-0.8
		c0.1,0,0.1,0,0.2,0c0.8,0.2,1.8,1.1,2.6,2.9c1.6,3.4,2.7,7,3.1,10.7C375.6,469.1,375.6,471.6,373.4,474.9L373.4,474.9z
		 M364.1,482.4L364.1,482.4c1.8-0.8,3.9-0.5,5.4,0.8c1.8,1.6,2.1,4.4,2.1,6.6c-0.1,4.4-1.3,8.6-3.6,12.3c-0.7,1.1-1.5,2.1-2.5,3
		c-0.8,0.7-2,1.1-3.1,1.1c-0.8-0.1-1.5-0.4-2-1c1.1-2.1,2.1-4.4,2.7-6.6c0.7-2.7,0.6-5.4-0.2-8c-0.5-1.6-1.5-3.1-2.8-4.3
		C360.9,484.4,362.3,483,364.1,482.4z M360.4,477.1c-0.5,2.3-2.3,4.1-4.6,4.8c-2.4,0.8-4.7,0.2-5.3-0.4c-1.7-1.5-2.3-4-2.6-6
		c-0.3-2.8-0.4-5.5-0.2-8.3c0.3-4,0.7-8.6,2.7-12.5c1.1-2.1,2.2-3,3.9-3h0.1c0.8,0,2.4,2,3.6,4.3c1.5,3.1,2.5,8.4,2.8,13.1
		c0,0.6,0,1.1,0.1,1.6c0,0.2,0.1,0.4,0.1,0.5C361,473.3,360.9,475.2,360.4,477.1L360.4,477.1z M349.8,499.9L349.8,499.9
		c0.5-2.4,0.5-5-0.2-7.4c-0.1-0.4-0.2-0.7-0.4-1.1c0.1-0.2,0.2-0.4,0.3-0.5c0.7-1.2,1.3-2.3,2.3-2.8c1.3-0.8,2.9-1,4.4-0.6
		c1.8,0.7,3.1,2.1,3.7,4c0.6,2.1,0.7,4.2,0.2,6.3c-0.6,2.2-1.5,4.4-2.6,6.3c-1.5,2.9-3.4,6-6.3,7.4c-0.6,0.3-1.2,0.5-1.9,0.5
		c-1.3-0.2-2.4-1.1-2.6-2.4v-0.1C348.1,506.6,349.2,503.3,349.8,499.9z M346.7,499.4c-0.8,5-2.9,9.8-6,13.8
		c-1.7,2.1-3.1,3.2-4.7,3.3c-1.7,0-3.1-1.1-3.4-2.8c0-0.2-0.2-0.5-0.2-0.7c1.3-3.6,2.1-7.4,2.4-11.2c0.2-1.8,0.1-3.7-0.3-5.6
		c-0.1-0.5-0.2-1-0.5-1.5c0.7-2.1,2.8-3.5,4-4.1c1.4-0.8,3.4-1.5,5.3-0.9c1.6,0.7,2.9,2.1,3.3,3.7
		C347.1,495.3,347.1,497.4,346.7,499.4L346.7,499.4z M343.7,479.6c0,0.2-0.5,4.6-4.5,5.3c-1.8,0.4-3.5,0.5-5.3,0.4
		c-3.8-0.5-8-2.4-7.1-13l0.1-0.7c0.2-2.8,0.9-11.4,5-17.4c1.3-1.9,3.1-3.6,4-3.7c1.8-0.2,3.8,1.9,5.3,5.5v0.1
		C344.5,464.2,344.4,473.3,343.7,479.6L343.7,479.6z M329.4,493.3L329.4,493.3c1,1,1.7,2.2,2,3.6c0.3,1.5,0.4,3.1,0.2,4.7
		c-0.3,4-1.2,8.1-2.8,11.8c-1,2.4-2.5,4.4-4.5,6c-1.3,1-3.1,0.8-4.3-0.4c-0.7-0.7-1.2-2.8-1.3-5.5c0-0.1,0-0.2-0.1-0.3
		c1.5-4.2,2.6-9.5,1.8-14c-0.2-1.2-0.7-2.4-1.4-3.6c1.1-1.6,2.8-2.8,4.7-3.4C325.7,491.7,327.8,492.1,329.4,493.3z M318.5,487.1
		L318.5,487.1c-1.5,1.3-3.7,2.1-6.8,2.4c-1.6,0.2-3.9,0.2-5.7-0.8c-2.2-1.3-3.4-4.3-3.7-9c-0.4-6.7,0.9-13.1,3.1-20.6
		c0.5-1.8,3.1-7,6-8.6c0.4-0.2,0.9-0.4,1.4-0.4c0.3,0,0.6,0.1,0.8,0.2c7.3,2.8,8,19.3,8.3,26.4l0.1,1.1
		C322.2,481.5,320.9,485,318.5,487.1z M313.4,517.2c-1.7,2.7-4.4,4.7-6.3,4.5c-1.1-0.1-4.4-0.3-4.2-11.2c0-0.3,0-0.5,0-0.7
		c0-4.6,0.3-7.9,1.9-11.2c1.2-2.5,3.8-4.9,6.8-4.9c0.2,0,0.5,0,0.7,0.1c2.3,0.3,4.7,3.6,5.1,6C318.5,506.2,315.1,514.3,313.4,517.2
		L313.4,517.2z M385.4,480.1L385.4,480.1c-0.2-0.4-0.4-0.7-0.7-1c0.5-2.6,3.9-5.8,6.1-5.8l0,0c1,0.2,1.9,0.8,2.4,1.7
		c1.3,1.9,1.4,5,0.2,9.1c-0.2,0.8-3.1,6.3-4.4,7.7c-2.4,2.5-4.2,1.8-4.4,1.6h-0.1c1-2.8,1.5-5.8,1.6-8.8
		C386.3,483.1,386.1,481.6,385.4,480.1z M394,466.1c1.1-5.2,0.6-12.1-3.1-17.5c0.2-0.2,0.3-0.5,0.5-0.6c0.4,0.1,0.8,0.2,1.1,0.5
		c1.9,1.5,3.8,5.5,4.1,8.3c0.5,5.5-0.9,7.9-1.8,8.8C394.6,465.7,394.3,465.9,394,466.1z M390.8,466.3L390.8,466.3
		c-0.5,1-1.2,1.8-2.2,2.1c-0.8,0.2-1.1-0.1-1.5-0.5l0,0c0.8-5.7-0.2-11.6-2.7-16.9c0.7-2.1,1.4-2.6,1.8-2.7c0.4,0.1,0.8,0.3,1.1,0.6
		C391.7,454.1,392.2,461.3,390.8,466.3z M421.4,487.3L421.4,487.3c0.5,17-3.1,29.6-10.6,37.5c-3.1,3.3-7,5.8-11.4,7.2
		c1.1-1.3,2.2-2.4,3.1-3.3c2-2,3.7-4.3,5.1-6.6c3.8-4.9,6.4-10.6,7.6-16.7c1-4.4,0.7-8.9-0.9-13.1c-1.8-5.1-6.2-8.7-10.9-8.7l0,0
		c-2.5-0.1-5,0.7-7.2,2.2c0.1-0.2,0.2-0.5,0.3-0.7c1.5-5.2,1.3-9.2-0.8-12c-0.2-0.3-0.5-0.7-0.8-0.9c9.1-1.7,16-7,18.9-14.7
		c2.8-7.5,2.1-13.7,1.5-19.6c-0.6-5.3-1.1-10.4,1.1-15.7c2.5-5.9,10.5-9.5,14.2-11.1c0.2,0,0.5,0,0.7,0c1.8,0,3.4-0.1,5.1-0.2
		C431.6,420.5,420.2,448.4,421.4,487.3z M463.9,394L463.9,394c-0.2,0.2-0.3,0.3-0.5,0.5c-6.3,6.2-14.3,10.2-23,11.5
		c-0.4-0.1-0.8,0-1.1,0.2c-5,0.7-10.1,0.8-15.1,0.2c-6-1.1-11.9-2.8-17.6-4.9l-0.2-0.1c-7.4-2.8-15-5.8-23-6.6
		c-9.1-0.9-17.6,1.2-23.1,6c-3.1,2.7-4.9,5.8-5,8.9c-0.1,3.5,2.4,7.5,6.4,7.8c0.2,0,0.3,0,0.5,0c3.1-0.2,5.8-2.1,6.9-5
		c0.3-0.8,0.5-1.7,0.7-2.6c0.2-0.8,0.4-1.6,0.6-2.4c1.5-3.7,5.9-5.7,9.5-6.3c8-1.2,16,1.8,23.7,4.8l1.6,0.6c2.4,0.9,4.9,1.6,7.4,2.2
		c-7.3,1.3-14.2,5.1-16.7,14.8c-1.6,6.4-0.8,15.3,0.6,20.8c0.1,0.4,0.2,0.8,0.3,1.2c0.5,1.8,1,3.6,1.3,5.5c-0.8-2-2.1-3.8-3.8-5.3
		c-0.9-0.8-2.1-1.3-3.4-1.2c-0.9,0.2-1.8,0.6-2.4,1.4c-0.8-0.6-1.9-0.9-2.9-0.8c-1.5,0.2-2.8,1.2-3.4,2.5c-1.5-2.1-3.2-2.3-4.4-2.2
		c-2.3,0.2-3.9,2.4-4.4,3.3c-0.2,0.5-0.4,0.9-0.5,1.3c-0.8-1.4-2.2-2.3-3.7-2.6c-1.7-0.2-3.4,0.5-4.5,1.8c-1.1,1.4-1.9,3-2.3,4.7
		c-0.3,1.1-0.5,2.2-0.8,3.4c-0.3-0.9-0.7-1.9-1.1-2.8c-0.8-1.8-3.2-6-6.3-6h-0.1c-4.3,0-6.1,3.6-6.7,4.7c-0.9,1.9-1.6,3.9-2,6
		c-0.5-1.5-0.9-3.1-1.5-4.6v-0.1c-2.1-5-5.1-7.7-8.5-7.4c-2.9,0.2-5.7,3.9-6.4,5c-2.9,4.2-4.2,9.4-4.9,13.4
		c-1.1-7.8-3.4-16.1-9.5-18.4c-1.6-0.6-3.3-0.5-4.8,0.3c-4.1,2.1-7,8.4-7.6,10.5c-1,3.4-1.8,6.6-2.4,9.8c-0.5-3.1-1.4-6.3-2.4-9.8
		c-0.6-2.1-3.4-8.4-7.6-10.5c-1.5-0.8-3.2-0.9-4.8-0.3c-6.1,2.3-8.6,10.6-9.5,18.4c-0.7-4-2.1-9.2-4.9-13.4c-0.8-1.1-3.5-4.8-6.4-5
		c-3.4-0.2-6.3,2.4-8.5,7.4v0.1c-0.6,1.5-1.1,3.1-1.5,4.6c-0.4-2.1-1.1-4-2-6c-0.6-1.1-2.4-4.7-6.7-4.7h-0.1c-3.1,0.1-5.5,4.3-6.3,6
		c-0.5,0.9-0.8,1.8-1.1,2.8c-0.2-1.1-0.5-2.3-0.8-3.4c-0.4-1.8-1.1-3.4-2.3-4.7c-1.1-1.3-2.8-2-4.5-1.8c-1.5,0.2-2.8,1.1-3.9,2.8
		c-0.1-0.5-0.2-0.8-0.4-1.3c-0.7-1.8-2.2-3.1-4.1-3.4c-1-0.2-2.8-0.1-4.5,2.1c-0.2-0.3-0.3-0.5-0.5-0.8c-0.8-1.1-2-1.7-3.3-1.6
		c-0.9,0.1-1.8,0.4-2.6,0.9c-0.5-0.8-1.5-1.3-2.4-1.4c-1.2-0.1-2.4,0.4-3.4,1.2c-1.6,1.5-2.9,3.3-3.8,5.3c0.3-1.8,0.8-3.7,1.3-5.5
		c0.2-0.5,0.2-0.9,0.3-1.2c1.4-5.5,2.2-14.4,0.6-20.8c-2.4-9.7-9.3-13.4-16.7-14.8c2.5-0.5,5-1.3,7.4-2.2l1.6-0.6
		c7.7-3,15.7-6,23.7-4.8c3.7,0.6,8,2.5,9.5,6.3c0.3,0.8,0.5,1.6,0.6,2.4c0.2,0.8,0.4,1.8,0.7,2.6c1.1,2.9,3.8,4.9,6.9,5
		c0.2,0,0.3,0,0.5,0c4-0.3,6.5-4.3,6.4-7.8c-0.1-3.1-1.8-6.3-5-8.9c-5.6-4.7-14-7-23.1-6c-8,0.8-15.7,3.7-23,6.6l-0.2,0.1
		c-5.7,2.1-11.6,3.7-17.6,4.9c-5,0.5-10.1,0.5-15.1-0.2c-0.4-0.2-0.7-0.2-1.1-0.2c-8.7-1.4-16.7-5.4-23-11.5
		c-0.2-0.2-0.4-0.4-0.5-0.5c-20.3-19.3-15.1-37.1-7-64.2c1-3.4,2.1-7,3.1-10.7c10.9-38.6,4.2-77.2,4.1-77.5
		c-0.2-1.1-1.3-1.9-2.4-1.7c-1.1,0.2-1.9,1.3-1.7,2.4c0.1,0.4,6,33.9-2.4,69.3c-20.1-53.7-22-97.5-20-125.1
		c2.3-31.1,9.9-49.1,9.9-49.3c0,0,0-0.1,0.1-0.1C139,84.8,170.4,48.7,213,29.9c34.7-15.3,67.9-15.3,85.7-15.3
		c14.4,0,48.1,0,84.2,15.3c45.2,19.1,77.8,55.2,97,107.2c0,0,0,0.1,0.1,0.1c0.1,0.2,7.7,18.2,9.9,49.3c2,27.7,0.1,71.5-20,125.1
		c-8.3-35.4-2.4-69-2.4-69.3c0.2-1.1-0.5-2.2-1.7-2.4c-1.1-0.2-2.2,0.5-2.4,1.7c-0.1,0.4-6.8,39,4.1,77.5c1.1,3.7,2.1,7.3,3.1,10.7
		C478.9,356.8,484.3,374.7,463.9,394z"/>
	<path d="M454.6,352.2c-3.1-0.5-6.1,0.4-8.6,2.2c-2.2,1.5-3.7,3.9-4.1,6.5c-0.4,3.1,0.8,6.1,3.1,8.1c1.7,1.6,3.9,2.4,6.3,2.3
		c-1.5,5.7-8.4,12.2-16.5,13.1c-6.3,0.8-12.8-0.8-19-2.4c-0.9-0.2-1.8-0.5-2.8-0.7c-1.5-0.3-3.2-0.8-5.3-1.5
		c-17.1-4.8-52.8-14.8-63,14.3c-0.2,0.4,0.1,0.8,0.5,1c0.3,0.1,0.7,0,0.8-0.2c0.4-0.4,0.7-0.9,1.1-1.4c4.2-5.4,11.3-14.4,35.5-10.7
		c4.6,0.7,9,2.4,13.3,4.1c1.1,0.5,2.2,0.8,3.4,1.3c10,3.7,21.8,7.5,34,6.9c12.9-0.7,24.3-7,29.9-16.3c3.1-5.1,4-10.8,2.8-15.8
		C464.6,357.5,459.9,352.9,454.6,352.2z"/>
	<path d="M358.4,361.5c-6.1-1.5-10.6,4.4-12.3,6.9c-3.7,5.9-3.7,11.8-3.7,18.6v0.6c0,0.4,0.3,0.8,0.8,0.8h0.1c0.4,0,0.7-0.3,0.8-0.7
		c1-6.3,2.4-11.6,8.5-14.3c0.9-0.3,1.8-0.5,2.8-0.7c1.4-0.2,2.8-0.6,4-1.2c2.1-1.3,3.4-3.2,3.3-5.2C362.4,364,360.7,362,358.4,361.5
		z"/>
	<path d="M342.2,423.5c-2.4,0.8-4.1,2.8-4.7,5.3c-0.4,2.1,0.5,4.1,2.1,5.3c-2.1,1.1-4.8,1.4-8.1,1c-1.5-0.2-2.9-0.5-4.3-0.7
		c-2-0.4-4-0.7-6-0.8c-8.2-0.5-14.1,1.7-18.1,6.4c0.4-0.9,0.8-1.8,1.1-2.6c2.3-5.1,4.6-10.4,4.6-16.4c0-6.3-2.1-12-5.3-13.8
		c-3.7-2.2-8.5-1.2-11,2.3c-2.3,3.2-3.3,8.2-2.8,13.4c0.5,5.2,2.4,9.4,4.4,13.8c0.7,1.5,1.4,3,2,4.6c-3.9-5.7-10.2-8.2-19.1-7.7
		c-2,0.2-4,0.5-6,0.8c-1.4,0.2-2.9,0.5-4.3,0.7c-3.3,0.4-6,0-8.1-1c1.7-1.2,2.5-3.3,2.1-5.3c-0.5-2.4-2.4-4.4-4.7-5.3
		c-3.1-1.2-6.5,0.3-8.4,3.5c-0.8,1.6-1.1,3.4-0.8,5.2c0.5,3.7,1.8,6,4.6,7.7c3.2,2.1,7.5,2.5,12.8,1.5c1.6-0.3,3.2-0.8,4.7-1.2
		c2.4-0.8,4.9-1.3,7.4-1.6c8.6-0.8,16.8,3.2,21.5,10.4c0.4,0.2,0.8,0.5,1.2,0.8l0,0c0.4-0.2,0.7-0.5,1-0.8
		c4.7-7.2,13-11.2,21.5-10.4c2.5,0.3,5,0.8,7.4,1.6c1.5,0.5,3.1,0.8,4.7,1.2c5.3,1.1,9.5,0.6,12.8-1.5c2.8-1.8,4-4,4.6-7.7
		c0.3-1.8,0-3.6-0.8-5.2C348.7,423.7,345.2,422.2,342.2,423.5z"/>
	<path d="M282.1,430.4c5.4,0,5.4-8.5,0-8.5C276.7,422,276.6,430.4,282.1,430.4z"/>
	<path d="M312.8,423l-0.2,0.2c-0.8,0.8-1.2,1.8-1.2,3c0.1,1.1,0.5,2.1,1.2,3c0.8,0.8,1.8,1.2,3,1.2c1.1,0,2.2-0.5,3-1.2l0.2-0.2
		c0.8-0.8,1.2-1.8,1.2-3c-0.1-1.1-0.5-2.1-1.2-3c-0.8-0.8-1.8-1.2-3-1.2C314.7,421.8,313.7,422.2,312.8,423z"/>
	<path d="M271.7,424.8c-0.8,0-1.5,0.3-2.1,0.8c-0.5,0.5-0.8,1.3-0.8,2.1c0,0.8,0.3,1.5,0.8,2.1l0.2,0.2c0.5,0.5,1.3,0.8,2.1,0.8
		c0.8,0,1.5-0.3,2.1-0.8c0.5-0.5,0.8-1.3,0.8-2.1s-0.3-1.5-0.8-2.1l-0.2-0.2C273.1,425.1,272.4,424.8,271.7,424.8z"/>
	<path d="M324.5,425.2c-0.5,0.5-0.8,1.3-0.8,2.1v0.2c0,0.8,0.3,1.5,0.8,2.1c1.1,1.1,3,1.1,4.1,0c0.5-0.5,0.8-1.3,0.8-2.1v-0.2
		c0-0.8-0.3-1.5-0.8-2.1C327.5,424.1,325.7,424.1,324.5,425.2z"/>
	<path d="M264.5,431.4c2.4,0,2.4-3.7,0-3.7C262.1,427.7,262.1,431.4,264.5,431.4z"/>
	<path d="M334.2,431.1c1,0,1.8-0.8,1.8-1.8V429c0-1-0.8-1.8-1.8-1.8c-1,0-1.8,0.8-1.8,1.8v0.2C332.4,430.3,333.2,431.1,334.2,431.1z
		"/>
	<path d="M291.3,238.3c0,0.1,3.4,5.7,6.7,25.1c0.1,0.4,0.4,0.6,0.8,0.7l0,0c0.4,0,0.7-0.2,0.8-0.6c4.7-19.9,7.6-25.1,7.6-25.1
		c0.2-0.2,0.2-0.6,0-0.8c-4.1-6.3-6.5-19.9-7.3-24.4c-0.2-1-0.2-1.3-0.3-1.5c-0.2-0.4-0.6-0.6-1-0.5c-0.2,0.1-0.5,0.3-0.5,0.5
		c-0.1,0.2-0.1,0.5-0.3,1.8c-0.8,4.7-3.1,18.9-6.5,24.1C291.1,237.7,291.1,238.1,291.3,238.3z"/>
	<path d="M268.1,246.7c-5.4,0-5.4,8.5,0,8.5C273.6,255.2,273.6,246.7,268.1,246.7z"/>
	<path d="M285.1,277.8c-5.4,0-5.4,8.5,0,8.5C290.5,286.3,290.5,277.8,285.1,277.8z"/>
	<path d="M284.6,311.6h-0.2c-1.1,0-2.2,0.5-3,1.2c-0.8,0.8-1.2,1.9-1.2,3c0,1.1,0.5,2.2,1.2,3s1.8,1.2,3,1.2h0.2
		c1.1,0,2.2-0.5,3-1.2c0.8-0.8,1.2-1.9,1.2-3c0-1.1-0.5-2.2-1.2-3C286.8,312.1,285.7,311.6,284.6,311.6z"/>
	<path d="M269.8,349c5.4,0,5.4-8.5,0-8.5C264.3,340.6,264.3,349,269.8,349z"/>
	<path d="M331.9,246.7c-5.4,0-5.4,8.5,0,8.5C337.4,255.2,337.4,246.7,331.9,246.7z"/>
	<path d="M314.9,277.8c-5.4,0-5.4,8.5,0,8.5C320.3,286.3,320.3,277.8,314.9,277.8z"/>
	<path d="M311.2,315.8c0.1,1.1,0.5,2.1,1.2,3c0.8,0.8,1.8,1.2,3,1.2h0.2c1.1,0,2.2-0.5,3-1.2c0.8-0.8,1.2-1.8,1.2-3
		c-0.1-1.1-0.5-2.1-1.2-3c-0.8-0.8-1.8-1.2-3-1.2h-0.2c-1.1,0-2.2,0.5-3,1.2C311.6,313.6,311.2,314.7,311.2,315.8z"/>
	<path d="M330.2,340.6c-5.4,0-5.4,8.5,0,8.5C335.7,349,335.7,340.6,330.2,340.6z"/>
	<path d="M261.2,313.7c1.1-2.6,1.8-5.3,2.4-8c1.4,0.5,2.8,0.7,4.2,0.7c1.7,0.1,3.3-0.4,4.7-1.3c3-2.1,3.3-6,3.1-7.8
		c-0.6-4-2.9-5.6-4.8-6.3c-2.2-0.8-4.7-0.8-7-0.1c-0.5-2.8-1.2-5.3-2.3-7.9c2.8-0.1,5.3-1.4,7-3.4c1.2-1.6,2.4-4.5,0.6-8.9
		c-0.8-2.1-4.5-5.7-9-4.6c-2.5,0.7-4.6,2.5-5.7,5c-1.7-2.1-3.6-4-5.6-5.9c2-1.4,3.9-3,4.7-5.3c0.8-2.8,0.3-5.7-1.4-8
		c-1.1-1.3-2.5-2.1-4.1-2.5c-4.6-1.1-9.2,1.7-10.4,6.3c-0.1,0.5-0.2,0.9-0.2,1.5c-2.5-1.4-5.1-2.5-7.7-3.5c1.5-2.4,2.2-6.1,0.8-8.8
		c-1.5-2.7-4.9-4.4-8.3-4.2c-0.8,0.1-1.5,0.2-2.2,0.5c-1.8,0.8-3.3,2.2-4.1,4c-0.7,1.6-1,3.3-0.9,5c-2.3-0.2-4.6-0.4-6.9-0.4
		c-0.4,0-0.7,0-1.1,0c0.2-2.4,0-5.5-2.2-7.9c-1.5-1.6-3.4-2.6-5.6-2.8s-4.3,0.5-6,1.8c-2.2,1.6-4.6,6.7-1.8,11.5
		c-2.7,0.8-5.3,2-7.8,3.3c-0.9-4.7-5.4-7.9-10.2-7c-2.7,0.5-5,2.2-6.2,4.6c-1.1,2.4-0.9,6.1,0.6,8.6c0.8,1.5,2.1,2.5,3.7,3.1
		c-1.6,1.8-3.1,3.6-4.4,5.6c-1.8-2.1-4.4-3.3-7.2-3c-3,0.4-5.5,2.3-6.6,5c-1.1,2.8-0.8,5.9,0.9,8.3c1.5,2.1,3.8,3.2,6.7,3.4
		c-0.5,2-1,4-1.2,6c-0.1,0-0.1,0-0.2,0c-5.2-0.7-10,3.1-10.6,8.3c-0.6,5.2,3.1,10,8.3,10.6c0.4,0.1,0.8,0.1,1.2,0.1
		c0.5,0,0.8,0,1.3-0.1c0.2,0,0.3-0.1,0.4-0.2c0.3,1.8,0.7,3.4,1.1,5c-2.1,0.2-4.9,2-6.6,4.2c-1.7,2.1-2.2,5-1.5,7.5
		c0.9,2.9,2.4,4.9,4.7,5.8c0.9,0.4,2,0.5,3,0.5c3.1,0,6.1-1.6,7.3-2.2l0.2-0.1c0.1,0,0.2-0.1,0.2-0.2c1,1.5,2.1,2.9,3.3,4.3
		c0.3,0.3,0.6,0.7,0.9,1c-1.5,1.1-2.8,2.5-3.7,4.1c-2.1,4.1-0.4,9.1,3.7,11.2c1.2,0.6,2.5,0.9,3.8,0.9c0.8,0,1.6-0.2,2.4-0.4
		c2.9-1,5-3.4,5.7-6.4c2,1.1,4,2,6.1,2.7c-0.5,1.8-0.7,3.7-0.4,5.7c0.5,3,2.6,5.4,5.5,6.3c1,0.3,2,0.5,3,0.5c2,0,3.9-0.6,5.5-1.8
		c2.4-1.8,3.4-5.3,3.2-7.9c2.1,0,4.1-0.2,6.2-0.5c0,2.2,0.6,4.4,1.8,6.3c1.6,2.2,4.1,3.5,6.8,3.5c1.1,0,2.1-0.2,3.1-0.5
		c2.7-0.8,4.7-3,5.3-5.7c0.5-2.7,0.1-5.5-1.3-7.9c2.4-1.1,4.8-2.2,7.1-3.6c0.6,2.5,2.1,4.8,4.2,6.3c1.1,0.8,2.6,1.2,4,1.2
		c1.1,0,2.3-0.2,3.4-0.7c2.1-0.8,3.9-2.4,4.7-4.6c0.8-2.4,0.5-5-0.5-7.3c-0.8-1.8-2.2-3.1-4-4c1.7-1.6,3.3-3.4,4.8-5.2
		c1.1,1.7,2.9,2.9,4.8,3.6c0.9,0.3,1.9,0.5,2.8,0.4c2.8,0.2,5.6-1.2,7.2-3.6c2.2-3.4,1.3-7.9-0.1-9.9
		C266.2,315.1,263.4,314.2,261.2,313.7z M264.2,293.7c0.1-0.1,0.2-0.1,0.2-0.2c1.9-0.7,4-0.6,5.8,0.2c1.5,0.7,2.4,2.1,2.7,4
		c0,0.2,0.5,3.5-2,5.3c-1.8,1.3-5.6,0.6-6.9,0.2c0.2-1.7,0.4-3.4,0.4-5.1C264.4,296.5,264.3,295.1,264.2,293.7z M159.3,306.3
		c-3.7,0.5-7.3-2.1-7.8-5.9c-0.3-2.4,0.6-4.7,2.4-6.3c1.5-1.2,3.4-1.8,5.3-1.5c0.1,0,0.1,0,0.2,0c-0.2,1.8-0.3,3.6-0.3,5.5
		c0,2.8,0.2,5.5,0.6,8.2C159.5,306.3,159.4,306.3,159.3,306.3z M256.7,272.8c0.6-3.3,4-4.2,4-4.2c3.1-0.8,5.6,2.1,5.9,3.1
		c1.1,2.6,1,4.7-0.2,6.3c-1.4,1.7-3.5,2.5-5.7,2.4c-0.2,0-0.3,0-0.4,0c-1.1-2.4-2.4-4.7-4-6.9C256.5,273.3,256.7,273,256.7,272.8z
		 M255.2,296.1c-5.4,0-5.4-8.5,0-8.5C260.7,287.7,260.7,296.1,255.2,296.1z M258.7,302.3v0.2c0,1.1-0.5,2.2-1.2,3
		c-0.8,0.8-1.8,1.2-3,1.2c-1.1-0.1-2.1-0.5-3-1.2c-0.8-0.8-1.2-1.8-1.2-3v-0.2c0-1.1,0.5-2.2,1.2-3c0.8-0.8,1.8-1.2,3-1.2
		c1.1,0.1,2.1,0.5,3,1.2C258.3,300.1,258.7,301.1,258.7,302.3z M252.3,278.3c1.1,0,2.2,0.5,3,1.2c0.8,0.8,1.2,1.8,1.2,3
		c-0.1,1.1-0.5,2.1-1.2,3c-0.8,0.8-1.8,1.2-3,1.2h-0.2c-1.1,0-2.2-0.5-3-1.2s-1.2-1.8-1.2-3c0.1-1.1,0.5-2.1,1.2-3
		c0.8-0.8,1.8-1.2,3-1.2H252.3z M246.7,278.3c-5.4,0-5.4-8.5,0-8.5C252.1,269.9,252.1,278.3,246.7,278.3z M245.5,251.7
		c0.7-0.1,1.3,0,1.9,0.2c1.1,0.2,2,0.8,2.7,1.6c0.7,0.9,1.1,2,1.1,3.1c0.1,0.8,0,1.6-0.2,2.4c-0.5,1.7-2.2,3-3.8,4.1
		c-0.2,0.1-0.2,0.2-0.3,0.3c-2.1-1.8-4.4-3.4-6.9-4.9c0-0.1,0-0.2,0-0.3C239.8,254.8,242.2,252,245.5,251.7z M239,263.6
		c5.4,0,5.4,8.5,0,8.5C233.6,272,233.6,263.6,239,263.6z M229.8,258.8c1.1,0.1,2.1,0.5,3,1.2c0.8,0.8,1.2,1.8,1.2,3v0.2
		c0,1.1-0.5,2.2-1.2,3c-0.8,0.8-1.8,1.2-3,1.2c-1.1-0.1-2.1-0.5-3-1.2c-0.8-0.8-1.2-1.8-1.2-3V263c0-1.1,0.5-2.2,1.2-3
		C227.7,259.3,228.7,258.8,229.8,258.8z M222.4,343.5c-5.4,0-5.4-8.5,0-8.5C227.8,335.1,227.8,343.5,222.4,343.5z M218.3,246.2
		c0.5-1.2,1.5-2.1,2.7-2.7c0.5-0.2,0.9-0.3,1.4-0.3c2.3-0.2,4.7,1.1,5.7,2.8c1,1.9,0.3,5-1.1,6.6c0,0,0,0,0,0.1
		c-3.1-1-6.2-1.7-9.4-2.2v-0.1C217.6,249,217.8,247.5,218.3,246.2z M219.6,256.2c5.4,0,5.4,8.5,0,8.5
		C214.1,264.6,214.2,256.2,219.6,256.2z M194.8,242.9c1.2-0.9,2.8-1.3,4.3-1.2c1.5,0.2,2.8,0.8,3.8,1.9c1.7,1.8,1.8,4.3,1.5,6.2
		c-3.5,0.2-7,0.8-10.3,1.7C192.1,248.9,192.4,245.2,194.8,242.9z M198.3,264.6c-5.4,0-5.4-8.5,0-8.5
		C203.8,256.2,203.8,264.6,198.3,264.6z M188.4,259.1c5.4,0,5.4,8.5,0,8.5C183,267.5,183,259.1,188.4,259.1z M179.4,272.8
		c-5.4,0-5.4-8.5,0-8.5S184.9,272.8,179.4,272.8z M170.1,260.5c-1.1-1.8-1.2-4.1-0.5-6.1c1.5-3,5.3-4.1,8.3-2.6
		c1.8,0.9,3,2.7,3.2,4.7c0,0.2,0.1,0.3,0.2,0.5c-2.7,1.6-5.2,3.5-7.5,5.7c-0.1,0-0.1,0-0.2,0C172.2,262.6,170.8,261.8,170.1,260.5z
		 M170,273.3c0.8-0.8,1.8-1.2,3-1.2h0.2c1.1,0,2.2,0.5,3,1.2c0.8,0.8,1.2,1.8,1.2,3c-0.1,1.1-0.5,2.1-1.2,3c-0.8,0.8-1.8,1.2-3,1.2
		H173c-1.1,0-2.2-0.5-3-1.2c-0.8-0.8-1.2-1.8-1.2-3C168.8,275.2,169.2,274.2,170,273.3z M169,282.3c5.4,0,5.4,8.5,0,8.5
		C163.5,290.8,163.5,282.3,169,282.3z M167.5,303.3c5.4,0,5.4,8.5,0,8.5S162.1,303.3,167.5,303.3z M167.5,292.9c5.4,0,5.4,8.5,0,8.5
		C162,301.4,162,292.9,167.5,292.9z M156.4,279.2c-1.1-1.7-1.4-3.8-0.6-5.7c0.8-1.8,2.5-3.1,4.5-3.4c2-0.2,4,0.7,5.1,2.4
		c0.1,0.2,0.2,0.2,0.4,0.4c-1.6,2.8-3,5.7-4,8.8c-0.1,0-0.1,0-0.2,0l0,0C160.2,281.5,157.7,281.2,156.4,279.2z M166.9,327.4
		c-3.4,1.8-6,2.3-7.9,1.5c-1.5-0.6-2.5-2-3.1-4.1c-0.5-1.8-0.2-3.7,1-5.2c1.5-2.1,3.9-3.2,5-3.2c0.1,0,0.2,0,0.2,0
		c1.3,3.8,3,7.5,5,10.9L166.9,327.4z M171.1,313.4c5.4,0,5.4,8.5,0,8.5C165.7,321.8,165.7,313.4,171.1,313.4z M175.5,322.1
		c5.4,0,5.4,8.5,0,8.5C170.1,330.5,170.1,322.1,175.5,322.1z M182.1,343.2L182.1,343.2c-0.3,3.1-3.1,5.4-6.2,5.1
		c-3.1-0.3-5.4-3.1-5.1-6.2c0.1-0.7,0.2-1.4,0.6-2c0.8-1.4,1.8-2.5,3.1-3.4c0,0,0.1,0,0.1-0.1c2.4,2.3,4.9,4.4,7.7,6
		C182.1,342.9,182.1,343.1,182.1,343.2z M185.5,336.3c-0.8,0.8-1.8,1.2-3,1.2h-0.2c-1.1,0-2.2-0.5-3-1.2c-0.8-0.8-1.2-1.8-1.2-3
		c0.1-1.1,0.5-2.1,1.2-3c0.8-0.8,1.8-1.2,3-1.2h0.2c1.1,0,2.2,0.5,3,1.2c0.8,0.8,1.2,1.8,1.2,3C186.6,334.4,186.2,335.5,185.5,336.3
		z M191.3,334.4c5.4,0,5.4,8.5,0,8.5C185.9,342.9,185.9,334.4,191.3,334.4z M202.7,355.5c-1.8,1.2-4,1.6-6,0.9
		c-2-0.6-3.4-2.3-3.7-4.4c-0.2-1.5-0.2-2.9,0.3-4.4c3.8,1.1,7.7,1.7,11.7,1.8C205.1,351.7,204.2,354.3,202.7,355.5z M204,344
		c-0.8,0.8-1.8,1.2-3,1.2h-0.2c-1.1,0-2.2-0.5-3-1.2c-0.8-0.8-1.2-1.8-1.2-3c0.1-1.1,0.5-2.1,1.2-3c0.8-0.8,1.8-1.2,3-1.2h0.2
		c1.1,0,2.2,0.5,3,1.2s1.2,1.8,1.2,3C205.1,342.2,204.7,343.2,204,344z M206,262.3l-0.2-0.2c-0.8-0.8-1.2-1.8-1.2-3
		c0-1.1,0.5-2.2,1.2-3c0.8-0.8,1.9-1.2,3-1.2c1.1,0,2.2,0.5,3,1.2l0.2,0.2c0.8,0.8,1.2,1.8,1.2,3c0,1.1-0.5,2.2-1.2,3
		c-0.8,0.8-1.9,1.2-3,1.2S206.8,263.1,206,262.3z M212.1,346c-5.4,0-5.4-8.5,0-8.5S217.6,346,212.1,346z M228.2,352.1
		c-0.5,1.8-1.8,3.2-3.6,3.8c-2.4,1-5.2,0.2-6.8-1.9c-1-1.6-1.5-3.4-1.4-5.3c3.6-0.6,7.2-1.6,10.6-2.9v0.1
		C228.2,347.7,228.6,350,228.2,352.1z M234.2,337.4c-0.8,0.8-1.8,1.2-3,1.2h-0.2c-1.1,0-2.2-0.5-3-1.2c-0.8-0.8-1.2-1.8-1.2-3
		c0.1-1.1,0.5-2.1,1.2-3c0.8-0.8,1.8-1.2,3-1.2h0.2c1.1,0,2.2,0.5,3,1.2c0.8,0.8,1.2,1.8,1.2,3C235.4,335.5,234.9,336.6,234.2,337.4
		z M239.6,324c5.4,0,5.4,8.5,0,8.5C234.1,332.5,234.1,324,239.6,324z M250,337.4c0.8,1.6,0.9,3.4,0.5,5.1c-0.6,1.5-1.8,2.6-3.3,3.1
		c-1.9,0.8-3.5,0.7-4.9-0.2c-2.1-1.5-3.1-4.5-3.2-5.7c2.5-1.7,5-3.4,7.3-5.5c0.1,0.1,0.2,0.1,0.2,0.1C248,334.8,249.3,336,250,337.4
		z M246.8,324.7c-5.4,0-5.4-8.5,0-8.5C252.3,316.3,252.3,324.7,246.8,324.7z M251.5,316.3c-1.1-0.1-2.1-0.5-3-1.2
		c-0.8-0.8-1.2-1.8-1.2-3v-0.2c0-1.1,0.5-2.2,1.2-3c0.8-0.8,1.8-1.2,3-1.2c1.1,0.1,2.1,0.5,3,1.2c0.8,0.8,1.2,1.8,1.2,3v0.2
		c0,1.1-0.5,2.2-1.2,3C253.7,315.8,252.6,316.3,251.5,316.3z M265.8,326.1c-2,3.1-6,2.4-7,2.1c-1.7-0.5-3.1-1.8-3.9-3.4
		c2-2.8,3.7-5.7,5.2-8.6c2.8,0.5,4.6,1.4,5.7,3C266.5,320.2,267.5,323.6,265.8,326.1z"/>
	<path d="M177.8,366.3c-2.4-2.5-5.6-6-9.8-5.8c-1.5,0-2.8,0.7-3.7,1.8c-0.8,1.2-0.9,2.8-0.4,4.1c0.5,1.2,1.2,2.3,2.1,3.2
		c4.7,5,11.4,7.6,19,7.6c3.4,0,6.8-0.5,10.1-1.5c0.3-0.1,0.5-0.4,0.6-0.8c0-0.5-0.3-0.8-0.8-0.8C186,373.9,181.2,370.1,177.8,366.3z
		"/>
	<path d="M447.8,292.2L447.8,292.2c-2.1-1.7-4.7-2.4-7.3-2.1c-0.1,0-0.1,0-0.2,0c-0.3-2-0.7-4-1.2-6c2.9-0.2,5.3-1.3,6.7-3.4
		c1.7-2.4,2-5.6,0.9-8.3c-1.1-2.8-3.7-4.7-6.6-5c-2.8-0.3-5.5,0.8-7.2,3c-1.3-2-2.8-3.8-4.4-5.6c1.5-0.5,2.9-1.6,3.7-3.1
		c1.5-2.5,1.8-6.3,0.6-8.6c-2.2-4.3-7.5-6-11.8-3.8c-2.4,1.2-4.1,3.5-4.6,6.2c-2.5-1.3-5.1-2.4-7.8-3.3c2.8-4.7,0.5-9.9-1.8-11.5
		c-1.8-1.2-3.8-1.8-6-1.8c-2.1,0.2-4.2,1.1-5.6,2.8c-2.2,2.4-2.5,5.5-2.2,7.9c-0.4,0-0.7,0-1.1,0c-2.3,0-4.6,0.2-6.9,0.4
		c0.1-1.8-0.2-3.4-0.9-5c-0.8-1.8-2.3-3.3-4.1-4c-0.7-0.3-1.5-0.5-2.2-0.5c-3.4-0.2-6.8,1.5-8.3,4.2c-1.4,2.7-0.7,6.3,0.8,8.8
		c-2.7,1-5.3,2.1-7.7,3.5c-0.3-4.7-4.4-8.3-9.2-7.9c-0.5,0-1,0.1-1.5,0.2c-1.6,0.4-3.1,1.3-4.1,2.5c-1.7,2.3-2.2,5.3-1.4,8
		c0.8,2.4,2.7,3.9,4.7,5.3c-2,1.8-3.9,3.8-5.6,5.9c-1-2.4-3.1-4.3-5.7-5c-4.5-1.1-8.2,2.4-9,4.6c-1.8,4.4-0.7,7.3,0.6,8.9
		c1.8,2.1,4.3,3.4,7,3.4c-1,2.6-1.8,5.3-2.3,7.9c-2.2-0.7-4.7-0.7-7,0.1c-1.8,0.7-4.2,2.4-4.8,6.3c-0.3,1.9,0.1,5.7,3.1,7.8
		c1.4,0.9,3,1.4,4.7,1.3c1.5,0,2.8-0.2,4.2-0.7c0.5,2.8,1.4,5.4,2.4,8c-2.2,0.5-5,1.5-6.7,4c-1.4,1.9-2.3,6.4-0.1,9.9
		c1.6,2.4,4.4,3.7,7.2,3.6c1,0,1.9-0.2,2.8-0.4c2-0.6,3.7-1.9,4.8-3.6c1.5,1.8,3.1,3.5,4.8,5.2c-1.8,0.8-3.1,2.2-4,4
		c-1.1,2.3-1.2,4.9-0.5,7.3c0.9,2.1,2.6,3.7,4.7,4.6c1.1,0.5,2.2,0.7,3.4,0.7c1.5,0,2.8-0.4,4-1.2c2.1-1.5,3.6-3.8,4.2-6.3
		c2.3,1.4,4.7,2.5,7.1,3.6c-1.4,2.4-1.8,5.2-1.3,7.9c0.7,2.7,2.7,4.9,5.3,5.7c1,0.3,2.1,0.5,3.1,0.5c2.7,0,5.2-1.3,6.8-3.5
		c1.2-1.9,1.8-4.1,1.8-6.3c2.1,0.2,4.1,0.4,6.2,0.5c-0.2,2.7,0.8,6.2,3.2,7.9c1.6,1.1,3.5,1.8,5.5,1.8c1,0,2-0.2,3-0.5
		c2.9-0.9,5-3.4,5.5-6.3c0.3-1.9,0.2-3.8-0.4-5.7c2.1-0.8,4.1-1.7,6.1-2.7c0.6,3,2.8,5.5,5.7,6.4c0.8,0.2,1.6,0.4,2.4,0.4
		c4.6,0.1,8.3-3.6,8.4-8.2c0-1.4-0.3-2.7-0.9-3.8c-0.9-1.6-2.1-3.1-3.7-4.1c0.3-0.3,0.6-0.7,0.9-1c1.1-1.4,2.3-2.8,3.3-4.3
		c0.1,0.1,0.2,0.1,0.2,0.2l0.2,0.1c1.1,0.6,4.1,2.2,7.3,2.2c1,0,2.1-0.2,3-0.5c2.2-0.9,3.7-2.8,4.7-5.8c0.8-2.6,0.2-5.4-1.5-7.5
		c-1.7-2.2-4.4-4-6.6-4.2c0.5-1.7,0.8-3.4,1.1-5c0.2,0.1,0.3,0.1,0.4,0.2c0.5,0.1,0.8,0.1,1.3,0.1c5.3,0,9.5-4.2,9.5-9.5
		C451.2,296.7,450,294,447.8,292.2z M329.1,303L329.1,303c-2.4-1.8-2-5.1-2-5.3c0.3-2,1.1-3.3,2.7-4c1.8-0.8,4-0.8,5.8-0.2
		c0.1,0.1,0.2,0.1,0.2,0.2c-0.2,1.5-0.2,2.8-0.2,4.3c0,1.8,0.2,3.4,0.4,5.1C334.7,303.6,330.9,304.3,329.1,303z M431,290.8
		c-5.4,0-5.4-8.5,0-8.5C436.5,282.3,436.5,290.8,431,290.8z M432.5,301.4c-5.4,0-5.4-8.5,0-8.5C438,292.9,438,301.4,432.5,301.4z
		 M432.5,311.8c-5.4,0-5.4-8.5,0-8.5C437.9,303.3,437.9,311.8,432.5,311.8z M430,273.3c0.8,0.8,1.2,1.9,1.2,3c0,1.1-0.5,2.2-1.2,3
		c-0.8,0.8-1.8,1.2-3,1.2h-0.2c-1.1,0-2.2-0.5-3-1.2c-0.8-0.8-1.2-1.9-1.2-3c0-1.1,0.5-2.2,1.2-3c0.8-0.8,1.8-1.2,3-1.2h0.2
		C428.2,272.1,429.3,272.6,430,273.3z M418.9,256.5c0.4-3.4,3.4-5.7,6.8-5.3c2,0.2,3.7,1.5,4.7,3.2c0.8,2,0.6,4.3-0.5,6.1
		c-0.7,1.3-2.1,2.1-3.5,2.1l0,0c-0.1,0-0.1,0-0.2,0c-2.3-2.1-4.8-4-7.5-5.7C418.8,256.8,418.9,256.7,418.9,256.5z M420.6,264.3
		c5.4,0,5.4,8.5,0,8.5C415.1,272.8,415.1,264.3,420.6,264.3z M411.6,259.1c5.4,0,5.4,8.5,0,8.5C406.2,267.5,406.1,259.1,411.6,259.1
		z M397.1,243.6c1-1.1,2.4-1.8,3.8-1.9c1.5-0.1,3.1,0.4,4.3,1.2c2.3,2.3,2.6,5.9,0.7,8.6c-3.4-0.9-6.9-1.5-10.3-1.7
		C395.3,248,395.4,245.4,397.1,243.6z M401.7,264.6c-5.4,0-5.4-8.5,0-8.5C407.1,256.2,407.1,264.6,401.7,264.6z M380.4,264.6
		c-5.4,0-5.4-8.5,0-8.5C385.8,256.2,385.9,264.6,380.4,264.6z M377.6,343.5c-5.4,0-5.4-8.5,0-8.5C383,335.1,383,343.5,377.6,343.5z
		 M371.8,246c0.9-1.8,3.4-3,5.7-2.8c0.5,0,1,0.2,1.4,0.3c1.2,0.5,2.1,1.5,2.7,2.7c0.5,1.3,0.8,2.8,0.7,4.1v0.1
		c-3.2,0.5-6.3,1.2-9.4,2.2c0,0,0,0,0-0.1C371.6,250.9,370.8,247.9,371.8,246L371.8,246z M365.9,263c0-1.1,0.5-2.2,1.2-3
		c0.8-0.8,1.9-1.2,3-1.2c1.1,0,2.2,0.5,3,1.2c0.8,0.8,1.2,1.8,1.2,3v0.2c0,1.1-0.5,2.2-1.2,3c-0.8,0.8-1.9,1.2-3,1.2
		c-1.1,0-2.2-0.5-3-1.2c-0.8-0.8-1.2-1.8-1.2-3V263z M361,263.6c5.4,0,5.4,8.5,0,8.5C355.5,272,355.5,263.6,361,263.6z M349,259
		L349,259c-0.2-0.8-0.3-1.5-0.2-2.4c0.1-1.1,0.5-2.2,1.1-3.1c0.7-0.8,1.7-1.4,2.7-1.6c3.2-0.8,6.4,1.1,7.2,4.4
		c0.2,0.6,0.2,1.3,0.2,1.9c0,0.1,0,0.2,0,0.3c-2.4,1.5-4.7,3.1-6.9,4.9c-0.1-0.1-0.2-0.2-0.3-0.3C351.1,261.9,349.5,260.7,349,259z
		 M353.3,269.9c5.4,0,5.4,8.5,0,8.5C347.9,278.3,347.9,269.9,353.3,269.9z M344.7,279.5c0.8-0.8,1.8-1.2,3-1.2h0.2
		c1.1,0,2.2,0.5,3,1.2c0.8,0.8,1.2,1.9,1.2,3c0,1.1-0.5,2.2-1.2,3c-0.8,0.8-1.8,1.2-3,1.2h-0.2c-1.1,0-2.2-0.5-3-1.2
		c-0.8-0.8-1.2-1.9-1.2-3S343.9,280.4,344.7,279.5z M341.3,302.3c0-1.1,0.5-2.2,1.2-3c0.8-0.8,1.9-1.2,3-1.2c1.1,0,2.2,0.5,3,1.2
		c0.8,0.8,1.2,1.8,1.2,3v0.2c0,1.1-0.5,2.2-1.2,3c-0.8,0.8-1.9,1.2-3,1.2c-1.1,0-2.2-0.5-3-1.2s-1.2-1.8-1.2-3V302.3z M344.8,287.7
		c5.4,0,5.4,8.5,0,8.5C339.3,296.1,339.3,287.7,344.8,287.7z M333.5,277.9L333.5,277.9c-1.2-1.6-1.3-3.7-0.2-6.3
		c0.4-0.8,2.8-3.8,5.9-3.1c0,0,3.5,0.9,4,4.2c0.1,0.2,0.2,0.5,0.3,0.7c-1.5,2.1-2.9,4.4-4,6.9c-0.2,0-0.3,0-0.4,0
		C337.1,280.4,335,279.6,333.5,277.9z M341.2,328.2L341.2,328.2c-0.9,0.3-5,0.9-7-2.1c-1.6-2.5-0.7-6,0-6.9c1.1-1.6,2.9-2.5,5.7-3
		c1.5,3.1,3.2,6,5.2,8.6C344.3,326.5,342.9,327.7,341.2,328.2z M345.5,315c-0.8-0.8-1.2-1.8-1.2-3v-0.2c0-1.1,0.5-2.2,1.2-3
		c0.8-0.8,1.9-1.2,3-1.2c1.1,0,2.2,0.5,3,1.2s1.2,1.8,1.2,3v0.2c0,1.1-0.5,2.2-1.2,3c-0.8,0.8-1.9,1.2-3,1.2
		C347.4,316.3,346.3,315.8,345.5,315z M353.2,316.3c5.4,0,5.4,8.5,0,8.5C347.7,324.7,347.7,316.3,353.2,316.3z M357.8,345.5
		L357.8,345.5c-1.4,0.9-3,1-4.9,0.2c-1.5-0.5-2.7-1.7-3.3-3.1c-0.5-1.7-0.3-3.5,0.5-5.1c0.7-1.5,1.9-2.6,3.5-3
		c0.1,0,0.2-0.1,0.2-0.1c2.3,2,4.7,3.8,7.3,5.5C361,340.9,360,344,357.8,345.5z M360.4,332.5c-5.4,0-5.4-8.5,0-8.5
		C365.9,324,365.9,332.5,360.4,332.5z M368.9,338.7h-0.2c-1.1,0-2.2-0.5-3-1.2c-0.8-0.8-1.2-1.9-1.2-3c0-1.1,0.5-2.2,1.2-3
		c0.8-0.8,1.8-1.2,3-1.2h0.2c1.1,0,2.2,0.5,3,1.2c0.8,0.8,1.2,1.9,1.2,3c0,1.1-0.5,2.2-1.2,3C371.1,338.2,370.1,338.7,368.9,338.7z
		 M382.3,354c-1.6,2.1-4.4,2.8-6.8,1.9c-1.8-0.5-3.1-2-3.6-3.8c-0.4-2.1,0-4.4,1.1-6.3v-0.1c3.4,1.3,7,2.3,10.6,2.9
		C383.7,350.6,383.3,352.5,382.3,354z M387.9,346c-5.4,0-5.4-8.5,0-8.5C393.3,337.5,393.3,346,387.9,346z M394,262.3
		c-0.8,0.8-1.8,1.2-3,1.2c-1.1-0.1-2.1-0.5-3-1.2c-0.8-0.8-1.2-1.8-1.2-3c0-1.1,0.5-2.2,1.2-3l0.2-0.2c0.8-0.8,1.8-1.2,3-1.2
		c1.1,0.1,2.1,0.5,3,1.2c0.8,0.8,1.2,1.8,1.2,3c0,1.1-0.5,2.2-1.2,3L394,262.3z M394.8,341c0-1.1,0.5-2.2,1.2-3
		c0.8-0.8,1.8-1.2,3-1.2h0.2c1.1,0,2.2,0.5,3,1.2c0.8,0.8,1.2,1.9,1.2,3c0,1.1-0.5,2.2-1.2,3c-0.8,0.8-1.8,1.2-3,1.2H399
		c-1.1,0-2.2-0.5-3-1.2C395.3,343.2,394.9,342.2,394.8,341z M407,352c-0.3,2.1-1.8,3.7-3.7,4.4c-2.1,0.7-4.3,0.4-6-0.9
		c-1.5-1.1-2.4-3.7-2.1-5.9c4-0.2,7.9-0.8,11.7-1.8C407.3,349.1,407.3,350.6,407,352z M408.7,342.9c-5.4,0-5.4-8.5,0-8.5
		C414.1,334.4,414.1,342.9,408.7,342.9z M417.5,337.5c-1.1,0-2.2-0.5-3-1.2c-0.8-0.8-1.2-1.9-1.2-3c0-1.1,0.5-2.2,1.2-3
		c0.8-0.8,1.8-1.2,3-1.2h0.2c1.1,0,2.2,0.5,3,1.2c0.8,0.8,1.2,1.9,1.2,3c0,1.1-0.5,2.2-1.2,3c-0.8,0.8-1.8,1.2-3,1.2H417.5z
		 M428.7,340.2c1.4,2.8,0.2,6.2-2.5,7.6c-2.8,1.4-6.2,0.2-7.6-2.5c-0.3-0.6-0.5-1.3-0.6-2c0-0.2-0.1-0.3-0.2-0.5
		c2.8-1.8,5.3-3.7,7.7-6c0,0,0,0.1,0.1,0.1C426.8,337.7,427.9,338.8,428.7,340.2z M424.5,330.5c-5.4,0-5.4-8.5,0-8.5
		C429.9,322.1,429.9,330.5,424.5,330.5z M428.9,321.8c-5.4,0-5.4-8.5,0-8.5C434.3,313.4,434.3,321.8,428.9,321.8z M443.2,319.7
		L443.2,319.7c1.1,1.5,1.5,3.4,1,5.2c-0.7,2.1-1.8,3.5-3.1,4.1c-1.9,0.8-4.6,0.3-7.9-1.5l-0.2-0.1c2.1-3.4,3.8-7.1,5-10.9
		c0.1,0,0.2,0,0.2,0C439.3,316.5,441.6,317.6,443.2,319.7z M438.4,281.5L438.4,281.5L438.4,281.5c-0.1,0-0.2,0-0.2,0
		c-1-3.1-2.4-6-4-8.8c0.2-0.1,0.2-0.2,0.4-0.4c1.1-1.7,3.1-2.6,5.1-2.4c2,0.3,3.7,1.6,4.5,3.4c0.8,1.9,0.5,4-0.6,5.7
		C442.3,281.2,439.8,281.5,438.4,281.5z M446.3,304.6c-1.5,1.4-3.6,2-5.6,1.8c-0.2,0-0.2,0-0.4,0c0.4-2.8,0.5-5.4,0.6-8.2
		c0-1.8-0.1-3.7-0.3-5.5c0.1,0,0.1,0,0.2,0c3.7-0.5,7.3,2.2,7.7,6C448.8,300.8,448,303.1,446.3,304.6z"/>
	<path d="M432,360.4c-4.2-0.2-7.4,3.3-9.8,5.8c-3.5,3.7-8.3,7.6-17.2,7.9c-0.4,0-0.6,0.2-0.8,0.6c-0.2,0.5,0.2,0.8,0.5,1
		c3.3,0.9,6.6,1.4,10.1,1.5c7.6,0,14.4-2.6,19-7.6c0.9-0.9,1.7-2,2.1-3.2c0.5-1.4,0.4-2.9-0.4-4.1
		C434.8,361.1,433.5,360.4,432,360.4z"/>
	<path d="M296.8,125.4c6.1,1.5,12.3-2.2,13.8-8.3c0.3-1.4,0.4-2.8,0.2-4.1c0-0.2-0.2-0.5-0.4-0.6c-3.6-2.4-7.8-3.6-12.1-3.7
		c-3.4,0.1-6.6,0.8-9.6,2.4c-0.2,0.1-0.4,0.3-0.4,0.5C286.9,117.7,290.7,123.9,296.8,125.4z M294.3,110.8v-0.2l0.2-0.1
		c1.6-0.5,3.3-0.8,4.9-0.8h0.1c1.8,0.1,3.7,0.5,5.3,1.4l0.2,0.1v0.2c0,0.2,0.1,0.5,0.1,0.6c0,0.5-0.1,0.8-0.2,1.3
		c-0.7,2.9-3.6,4.7-6.5,4C295.3,116.6,293.6,113.7,294.3,110.8z"/>
	<path d="M281.7,87.5c-3.7,3.1-5.7,8-6.5,15.4c-0.9,8.6,2,23.6,10.6,36.4c9.4,14,11.2,24.1,12,28.3c0.1,0.4,0.2,0.7,0.2,1
		c0.1,0.4,0.4,0.6,0.8,0.6h0.2c0.4,0,0.7-0.3,0.8-0.6c0.1-0.3,0.1-0.6,0.2-1c0.8-4.3,2.6-14.4,12-28.3c8.6-12.8,11.5-27.8,10.6-36.4
		c-0.8-7.4-2.9-12.3-6.5-15.4c-2.9-2.4-6.8-3.1-10.3-2c-3.1,1-5.6,3.4-6.8,6.4c-1.1-3.1-3.7-5.4-6.8-6.4
		C288.5,84.5,284.6,85.2,281.7,87.5z M305,140.6c-1.4-0.1-2.1-1.5-2.4-2.7c-0.4-2.5,0.8-5.1,2.1-7.2c0,0,0,0,0.1-0.1
		c0.1-0.1,0.2-0.1,0.3-0.1h0.1c0,0,0,0,0.1,0.1l0,0c1.4,2,2.9,4.3,2.8,6.9C307.9,139.3,306.8,140.7,305,140.6z M304,108.2
		c6.5,2,12,6.3,15.4,12.2c0.1,0.1,0.1,0.2-0.1,0.3c-2.8,2.4-6,4.5-9.5,6.1c-3.4,1.4-7,2.1-10.5,2c-7.9,0-15.4-3.2-20.9-8.8l0,0l0,0
		c0,0,0,0,0-0.1s0-0.2,0-0.2c2-3.2,4.6-6,7.6-8.2C291.3,107.9,297.8,106.4,304,108.2z"/>
</g>
</svg>
